<svg version="1.1" xmlns="http://www.w3.org/2000/svg">
  <metadata data-license="http://creativecommons.org/licenses/publicdomain/"/>
  <g transform="translate(50,600) scale(100)">
    <g id="1px:1ft" transform="scale(0.0155) translate(0 -370)">
      <path d="m194.03 291.86h-104.8l0.005 33.07c0 40.26-58.238 40.74-58.238 0v-33.07h-30.997v-103.56c0-27.8 22.358-42.48 34.984-44.09l31.874-81.394c6-15.5 19-28.748 43.502-28.748h45.54v-21.252c0-8.5 4.61-12.816 12.11-12.816h26.02-0.07 26.52c7.5 0 12.11 4.316 12.11 12.816v21.252h45.02c24.5 0 37.5 13.248 43.5 28.748l31.87 81.394c12.63 1.61 35.01 16.29 35.01 44.09v103.56h-31v33.07c0 40.74-58.23 40.26-58.23 0v-33.07h-104.8 0.07z"/>
      <g fill="white">
        <path id="path2076" d="m193.96 142.3h-125.98l24.002-62.984c3-9 7.502-15.5 17.998-15.597h168.01c10.5 0.097 15 6.597 18 15.597l23.99 62.984h-126.02z"/>
        <path id="path2082" d="m61.043 228.55c-14.856 0-26.901-12.29-26.901-27.45s12.045-27.45 26.901-27.45 26.9 12.29 26.9 27.45-12.044 27.45-26.9 27.45z"/>
        <path id="path2088" d="m326.93 228.55c14.85 0 26.9-12.29 26.9-27.45s-12.05-27.45-26.9-27.45c-14.86 0-26.91 12.29-26.91 27.45s12.05 27.45 26.91 27.45z"/>
      </g>
    </g>
  </g>
</svg>
