<svg version="1.1" xmlns="http://www.w3.org/2000/svg">
  <metadata data-license="http://creativecommons.org/licenses/publicdomain/"/>
  <g transform="translate(10,600) scale(100)">
    <g id="1px:1ft" transform="scale(0.013) translate(0,-450)">
      <g>
        <path d="m119.28 74.389c20.54 0 37.19-16.651 37.19-37.193s-16.65-37.196-37.19-37.196c-20.547 0-37.2 16.654-37.2 37.196s16.653 37.193 37.2 37.193z"/>
        <path d="m21.694 206.26h32.679l19.792-71.86h8.031l-19.332 71.86h115.61l-20.71-71.86h8.44l11.04 35.22c5.23 14.88 18.41 18.32 28.54 5.64l40.06-48.38c12.5-16.26-10.12-33.38-23.24-19.13l-23.63 28.25c0 0.47-4.5-15.5-4.5-15.5-5.5-19-23.5-37.675-50.5-37.675h-51c-24 0-42.895 21.005-46.802 34.195l-24.474 89.24z"/>
        <path d="m267.37 108.25v-74.268h-33.32v74.268h33.32z"/>
      </g>
      <g>
        <path d="m379.96 74.744c20.54 0 37.19-16.652 37.19-37.193 0-20.543-16.65-37.196-37.19-37.196s-37.2 16.653-37.2 37.196c0 20.541 16.66 37.193 37.2 37.193z"/>
        <path d="m427 426.03l0.02-205.62h27.3v-112.07c0-14.56-13.15-25.832-31.93-25.832h-87.36c-17.38 0-21.61 5.636-26.3 10.332l-72.76 87.41c-14.82 18.24 11.48 39.56 26.25 22.5l70.07-82.85v306.42c0 30.89 43.18 31.91 43.18 0.96v-173.89l8.6-0.11v173.15c0 30.69 42.93 30.78 42.93-0.4z"/>
      </g>
      <path d="m475.77 257.04v-42.27h-475.77v42.27h475.77z"/>
    </g>
  </g>
</svg>
