<svg version="1.1" xmlns="http://www.w3.org/2000/svg">
  <metadata data-license="http://creativecommons.org/licenses/publicdomain/"/>
  <g transform="translate(0,500) scale(100)">
    <g id="1px:1ft" transform="translate(0,-5) scale(0.01)">
      <path d="m82.882 97.304c26.868 0 48.648-21.784 48.648-48.651 0-26.869-21.78-48.653-48.648-48.653-26.87 0-48.653 21.784-48.653 48.653 0 26.867 21.783 48.651 48.653 48.651z"/>
      <path d="m82.882 48.653"/>
      <path d="m45.918 156.49c-8.75-56 72.002-73.003 85.002-15.75l22 109.67 82.08 0.17c23.96 0 36.42 19.17 36.42 36.91v149.12c0 36.21-51.56 36.04-51.56-0.65v-116.05h-104.83c-24.445 0-39.781-16.78-43.615-35.95l-25.497-127.47z"/>
      <path d="m181.42 329.7c27.23 0 27.1 40.29 0.37 40.29h-75.27c-36.602 0-73.102-27.5-82.65-70l-23.452-114c-4.7532-25.89 32.5-34.5 38-8l22.24 109.06c6.23 27.8 26.838 42.65 51.762 42.65h69z"/>
    </g>
  </g>
</svg>
