<svg version="1.1" xmlns="http://www.w3.org/2000/svg">
  <metadata data-license="http://creativecommons.org/licenses/publicdomain/"/>
  <g transform="translate(200,600) scale(100)">
    <g id="1px:1ft" transform="translate(-9,-0.2) scale(0.00077,-0.00077)">
      <path d="M11551 6950 c-81 -17 -169 -66 -232 -129 -229 -229 -164 -604 129
      -748 75 -38 77 -38 196 -38 144 0 198 18 291 92 116 94 175 218 175 366 0 128
      -36 221 -118 310 -61 64 -119 103 -190 128 -66 23 -188 32 -251 19z"/>
      <path d="M11253 5969 c-62 -10 -155 -45 -241 -88 -96 -48 -344 -195 -467 -276
      -355 -234 -594 -494 -795 -868 l-52 -98 11 -377 c19 -650 21 -672 44 -672 11
      0 96 -7 189 -16 94 -8 173 -13 176 -10 3 3 -5 205 -17 448 -12 244 -21 460
      -21 480 0 36 7 43 176 188 97 83 178 149 180 148 2 -2 -12 -51 -32 -108 -74
      -223 -114 -495 -114 -775 0 -194 18 -412 64 -810 20 -165 39 -337 44 -382 7
      -73 -7 -210 -134 -1290 -78 -664 -139 -1211 -136 -1214 6 -5 348 -218 388
      -242 7 -4 17 17 26 56 17 67 233 917 384 1512 52 204 102 403 111 443 10 39
      20 72 23 72 4 -1 205 -253 417 -524 29 -37 46 -96 183 -641 181 -719 210 -828
      216 -834 6 -6 426 99 438 110 10 9 16 -34 -109 764 -53 336 -111 707 -130 826
      l-33 217 -283 587 -282 588 47 226 c49 241 70 398 82 604 4 70 10 127 13 126
      3 0 60 -64 126 -141 l120 -141 395 -228 c217 -126 397 -229 400 -229 8 0 139
      363 134 371 -2 3 -87 59 -190 125 -102 65 -234 157 -292 204 -181 146 -351
      359 -443 556 -41 85 -46 109 -131 584 l-90 495 -45 67 c-95 143 -202 194 -350
      167z"/>
    </g>
  </g>
</svg>
