<svg version="1.1" xmlns="http://www.w3.org/2000/svg">
  <metadata data-license="http://creativecommons.org/licenses/publicdomain/"/>
  <g transform="translate(0,600) scale(100)">
    <g id="1px:1ft" transform="translate(0,-6) scale(0.04)">
      <path d="M26.656,61.293c5.492,0,9.938-4.445,9.938-9.938c0-5.469-4.445-9.914-9.938-9.914c-5.469,0-9.914,4.445-9.914,9.914
        C16.742,56.848,21.188,61.293,26.656,61.293z"/>
      <path d="M82.305,78.355c0.461-0.312,1.07-0.219,1.414,0.219l1.828,2.539c0.32,0.445,0.227,1.078-0.219,1.422l-13.477,9.789
        c-0.438,0.312-1.07,0.219-1.414-0.219l-1.828-2.539c-0.312-0.445-0.219-1.078,0.227-1.422L82.305,78.355z"/>
      <polygon points="67.078,65.738 61.727,56.363 58.922,58.41 64.266,67.832 	"/>
      <polygon points="54.602,43.832 33.812,7.34 29.828,7.363 51.766,45.91 	"/>
      <path d="M74.172,63.145c1.172-0.852,2.516-1.508,4.055-1.508l19.312,0.023c3.758,0,6.781,3.047,6.781,6.781
        c0,3.766-3.023,6.789-6.781,6.789l-16.117-0.023L60.852,89.73c-7.25,5.227-11.648-0.508-11.648-0.508L33.055,73.059
        c-2.711-3.25-2.125-9.422,1.125-12.156L56.531,44.98c2.219-1.852,5.516-1.562,7.391,0.641c1.859,2.219,1.562,5.539-0.656,7.391
        L48.961,63.488l10.273,10.156L74.172,63.145z"/>
    </g>
  </g>
</svg>
