<svg version="1.1" xmlns="http://www.w3.org/2000/svg">
  <metadata data-license="http://creativecommons.org/licenses/publicdomain/"/>
  <g transform="translate(-130 630) scale(100)">
    <g id="1px:1ft" transform="scale(0.006) translate(180 -930)">
      <g transform="matrix(2.332 0 0 2.332 997.06 -122.71)">
        <g transform="translate(1.4286 -131.43)">
          <rect rx="12" ry="12" height="138.57" width="84.286" y="252.36" x="-334.29"/>
          <path transform="matrix(.72059 0 0 .72059 -47.143 90.303)" d="m-291.43 172.36a48.571 48.571 0 1 1 -97.14 0 48.571 48.571 0 1 1 97.14 0z"/>
        </g>
        <rect transform="rotate(40)" rx="8" ry="8" height="114.29" width="25.714" y="298.63" x="-172.71"/>
        <rect transform="matrix(-.76604 .64279 .64279 .76604 0 0)" rx="8" ry="8" height="114.29" width="25.714" y="-74.733" x="272.25"/>
      </g>
    </g>
  </g>
</svg>
