<svg version="1.1" xmlns="http://www.w3.org/2000/svg">
  <metadata data-license="http://creativecommons.org/licenses/publicdomain/"/>
  <g transform="translate(0,600) scale(100)">
    <g id="1px:1ft" transform="scale(0.011) translate(0,-570)">
      <path d="M 382.23,147.184 C 404.78,147.184 423.064,128.9 423.064,106.349 C 423.064,83.7969 404.78,65.5129 382.23,65.5129 C 359.678,65.5129 341.396,83.7969 341.396,106.349 C 341.396,128.9 359.678,147.184 382.23,147.184 z" />
      <path d="M 329.762,222.236 L 330.012,533.986 C 330.012,565.17 375.87,564.885 375.87,533.272 L 375.897,351.906 L 384.823,351.82 L 384.795,533.187 C 384.795,564.799 431.188,565.598 431.188,533.986 L 431.215,220.929 L 439.273,220.929 L 439.273,332.724 C 439.273,359.562 475.693,359.562 475.693,333.204 L 475.693,210.906 C 475.693,178.03 451.224,158.669 425.345,158.669 L 352.734,158.669 C 335.512,158.669 323.012,165.486 312.512,180.486 L 275.762,234.04 L 211.992,234.04 C 186.368,234.04 187.806,270.38 211.512,270.38 L 285.012,270.38 C 290.763,270.38 297.762,268.236 301.785,262.232 L 329.762,222.236 z"/>
    </g>
  </g>
</svg>
