<?xml version="1.0"?>
<svg xmlns:rdf="http://www.w3.org/1999/02/22-rdf-syntax-ns#" xmlns="http://www.w3.org/2000/svg" xmlns:cc="http://creativecommons.org/ns#" xmlns:xlink="http://www.w3.org/1999/xlink" xmlns:dc="http://purl.org/dc/elements/1.1/" xmlns:svg="http://www.w3.org/2000/svg" id="svg40678" viewBox="0 0 287 255.84" version="1.1">
  <title id="title9348">isocity grey unit 1</title>
  <defs id="defs40680">
    <linearGradient id="linearGradient8358" x1="252.34" gradientUnits="userSpaceOnUse" y1="599.36" gradientTransform="matrix(.82210 0 0 .82210 -1008.9 172.51)" x2="276.06" y2="599.36">
      <stop id="stop3296" stop-color="#c87137" offset="0"/>
      <stop id="stop3298" stop-color="#c87137" stop-opacity="0" offset="1"/>
    </linearGradient>
    <filter id="filter7982" color-interpolation-filters="sRGB">
      <feGaussianBlur id="feGaussianBlur7984" stdDeviation="0.970605"/>
    </filter>
    <linearGradient id="linearGradient8360" x1="124.16" gradientUnits="userSpaceOnUse" y1="496.52" gradientTransform="matrix(.82210 0 0 .82210 -944.38 202.4)" x2="245.88" y2="496.52">
      <stop id="stop3233" stop-color="#55d400" offset="0"/>
      <stop id="stop3235" stop-color="#55d400" stop-opacity="0" offset="1"/>
    </linearGradient>
    <filter id="filter7974" color-interpolation-filters="sRGB">
      <feGaussianBlur id="feGaussianBlur7976" stdDeviation="1.8810689"/>
    </filter>
    <linearGradient id="linearGradient8362" x1="140.38" gradientUnits="userSpaceOnUse" y1="531.41" gradientTransform="matrix(.82210 0 0 .82210 -942.97 201.69)" x2="198" y2="531.41">
      <stop id="stop3225" stop-color="#00d400" offset="0"/>
      <stop id="stop3227" stop-color="#00d400" stop-opacity="0" offset="1"/>
    </linearGradient>
    <filter id="filter7954" color-interpolation-filters="sRGB">
      <feGaussianBlur id="feGaussianBlur7956" stdDeviation="0.22511983"/>
    </filter>
    <radialGradient id="radialGradient8364" gradientUnits="userSpaceOnUse" cy="776" cx="-504.06" gradientTransform="matrix(1 0 0 1.3818 0 -296.27)" r="15.55">
      <stop id="stop3966" stop-color="#6a3c1d" offset="0"/>
      <stop id="stop3968" stop-color="#8f5127" offset="1"/>
    </radialGradient>
    <linearGradient id="linearGradient8366" x1="299.76" xlink:href="#linearGradient3417" gradientUnits="userSpaceOnUse" x2="484.91" y1="463.86" y2="463.86"/>
    <linearGradient id="linearGradient3417">
      <stop id="stop3419" stop-color="#4e9a06" offset="0"/>
      <stop id="stop3421" stop-color="#73d216" offset="1"/>
    </linearGradient>
    <filter id="filter7885" color-interpolation-filters="sRGB">
      <feGaussianBlur id="feGaussianBlur7887" stdDeviation="3.8635419"/>
    </filter>
    <linearGradient id="linearGradient8368" x1="99.186" xlink:href="#linearGradient3417" gradientUnits="userSpaceOnUse" x2="279.92" y1="480.39" y2="480.39"/>
    <filter id="filter7889" color-interpolation-filters="sRGB">
      <feGaussianBlur id="feGaussianBlur7891" stdDeviation="3.8635419"/>
    </filter>
    <linearGradient id="linearGradient8370" x1="59.511" xlink:href="#linearGradient3417" gradientUnits="userSpaceOnUse" x2="251.27" y1="403.25" y2="403.25"/>
    <filter id="filter7897" color-interpolation-filters="sRGB">
      <feGaussianBlur id="feGaussianBlur7899" stdDeviation="3.8635419"/>
    </filter>
    <linearGradient id="linearGradient8372" x1="438.62" xlink:href="#linearGradient3417" gradientUnits="userSpaceOnUse" x2="632.58" y1="438.51" y2="438.51"/>
    <filter id="filter7881" color-interpolation-filters="sRGB">
      <feGaussianBlur id="feGaussianBlur7883" stdDeviation="3.8635419"/>
    </filter>
    <linearGradient id="linearGradient8374" x1="187.35" xlink:href="#linearGradient3417" gradientUnits="userSpaceOnUse" x2="368.09" y1="323.9" y2="323.9"/>
    <filter id="filter7893" color-interpolation-filters="sRGB">
      <feGaussianBlur id="feGaussianBlur7895" stdDeviation="3.8635419"/>
    </filter>
  </defs>
  <g id="layer1" transform="translate(-39.36 -226.95)">
    <g id="g8522" transform="translate(591.07 -300.76)">
      <g id="g8312" transform="translate(305.12 -.46447)">
        <path id="path8314" fill-rule="evenodd" fill="#a02c2c" d="m-801.48 679.07c1.0146 0.48884 1.9577 1.1721 3.0829 1.3873 1.4113 0.31701 2.8451 0.55898 4.2903 0.64244 2.495 0.0351 4.9659-0.37172 7.4345-0.67821 0.80908-0.12765 1.6025-0.34928 2.3936-0.56038 0.80621-0.26231 1.6619-0.7184 1.9895-1.5485 0.2567-0.7271 0.23356-1.5135 0.28265-2.2737 0.0351-1.0869 0.0281-2.1743-0.0561-3.2587-0.21251-4.6927-0.4166-9.3862-0.73972-14.073-0.13325-1.9695-0.23705-3.9413-0.38785-5.9093-0.1066-0.82452-0.10099-1.6658-0.30438-2.4755-0.25039-0.7884-1.0844-1.0558-1.8343-0.92488h-14.145c-0.66769 9.8909-1.3359 19.782-2.0038 29.673z"/>
        <path id="path8316" opacity=".89" fill="#55d400" d="m-792.96 566.56c-14.683 0-26.781 10.267-28.465 23.507-12.003 2.9932-20.886 13.729-20.886 26.513 0 15.098 12.387 27.361 27.669 27.361 4.871 0 9.4587-1.2574 13.436-3.4425 5.8421 8.5159 15.565 14.104 26.59 14.104 17.859 0 32.37-14.635 32.37-32.678 0-6.8908-2.121-13.276-5.729-18.549 0.23846-1.0162 0.38504-2.0604 0.38504-3.1343 0-8.6821-8.1751-15.791-18.472-16.314-4.0669-10.138-14.588-17.367-26.898-17.367z"/>
        <path id="path8318" fill="#55d400" d="m-799.95 617.94c-5.558 0-10.534 2.4313-13.899 6.2685-0.7907-0.16342-1.6188-0.28265-2.4663-0.28265-5.8917 0-10.662 4.1961-10.662 9.3514 0 0.7555 0.11432 1.4801 0.3086 2.1837-1.4443 1.9985-2.3122 4.4623-2.3122 7.142 0 6.6282 5.2195 12.023 11.664 12.023 0.30859 0 0.6228-0.0281 0.92487-0.0491 2.384 3.6214 6.7631 6.0373 11.766 6.0373 6.1334 0 11.319-3.635 13.051-8.6577 5.9105-2.992 9.968-9.0306 9.968-16.005 0-9.9423-8.2167-18.009-18.343-18.009z"/>
        <path id="path8320" fill-rule="evenodd" fill="url(#linearGradient8358)" d="m-801.48 679.07c1.0146 0.48884 1.9577 1.1721 3.0829 1.3873 1.4113 0.31701 2.8451 0.55898 4.2903 0.64244 2.495 0.0351 4.9659-0.37172 7.4345-0.67821 0.80908-0.12765 1.6025-0.34928 2.3936-0.56038 0.80621-0.26231 1.6619-0.7184 1.9895-1.5485 0.2567-0.7271 0.23356-1.5135 0.28265-2.2737 0.0351-1.0869 0.0281-2.1743-0.0561-3.2587-0.21251-4.6927-0.4166-9.3862-0.73972-14.073-0.13325-1.9695-0.23705-3.9413-0.38785-5.9093-0.1066-0.82452-0.10099-1.6658-0.30438-2.4755-0.25039-0.7884-1.0844-1.0558-1.8343-0.92488h-14.145c-0.66769 9.8909-1.3359 19.782-2.0038 29.673z"/>
        <path id="path8322" opacity=".89" filter="url(#filter7982)" fill="#008000" d="m-792.96 566.56c-14.683 0-26.781 10.267-28.465 23.507-12.003 2.9932-20.886 13.729-20.886 26.513 0 10.015 5.4602 18.79 13.59 23.558-0.16201 0.79133-0.25669 1.6245-0.25669 2.4662 0 6.6282 5.2194 12.023 11.664 12.023 0.30859 0 0.6228-0.0281 0.92487-0.0491 2.384 3.6214 6.7631 6.0373 11.766 6.0373 6.1334 0 11.319-3.635 13.051-8.6577 0.65647-0.33244 1.2933-0.69995 1.9011-1.1047 4.4953 2.4004 9.6161 3.7508 15.055 3.7508 17.859 0 32.37-14.635 32.37-32.678 0-6.8908-2.121-13.276-5.729-18.549 0.23846-1.0162 0.38504-2.0604 0.38504-3.1343 0-8.6821-8.1751-15.791-18.472-16.314-4.0669-10.138-14.588-17.367-26.898-17.367z"/>
        <path id="path8324" opacity=".89" filter="url(#filter7974)" fill="url(#linearGradient8360)" d="m-792.96 566.56c-14.683 0-26.781 10.267-28.465 23.507-12.003 2.9932-20.886 13.729-20.886 26.513 0 15.098 12.387 27.361 27.669 27.361 4.871 0 9.4587-1.2574 13.436-3.4425 5.8421 8.5159 15.565 14.104 26.59 14.104 17.859 0 32.37-14.635 32.37-32.678 0-6.8908-2.121-13.276-5.729-18.549 0.23846-1.0162 0.38504-2.0604 0.38504-3.1343 0-8.6821-8.1751-15.791-18.472-16.314-4.0669-10.138-14.588-17.367-26.898-17.367z"/>
        <path id="path8326" filter="url(#filter7954)" fill="url(#linearGradient8362)" d="m-798.53 617.23c-5.558 0-10.534 2.4313-13.899 6.2685-0.7907-0.16342-1.6188-0.28265-2.4663-0.28265-5.8917 0-10.662 4.1961-10.662 9.3514 0 0.7555 0.11432 1.4801 0.3086 2.1837-1.4443 1.9985-2.3122 4.4623-2.3122 7.142 0 6.6282 5.2195 12.023 11.664 12.023 0.30859 0 0.6228-0.0281 0.92487-0.0491 2.384 3.6214 6.7631 6.0373 11.766 6.0373 6.1334 0 11.319-3.635 13.051-8.6577 5.9105-2.992 9.968-9.0306 9.968-16.005 0-9.9423-8.2167-18.009-18.343-18.009z"/>
        <path id="path8328" stroke="#000" stroke-width="4" fill="none" d="m-792.96 566.56c-14.683 0-26.781 10.267-28.465 23.507-12.003 2.9932-20.886 13.729-20.886 26.513 0 0.54215 0.021 1.0844 0.0491 1.6185 0.002 0.0281-0.002 0.0491 0 0.0771 0.021 0.31631 0.0491 0.63753 0.0771 0.95054 0.005 0.0491 0.021 0.1024 0.0281 0.1543 0.0281 0.29667 0.0631 0.60527 0.10309 0.89914 0.1543 1.1272 0.37874 2.2346 0.66769 3.3141 0.002 0.007-0.002 0.021 0 0.0281 0.0421 0.14659 0.087 0.29106 0.12835 0.43695 0.26231 0.91414 0.57161 1.7991 0.92488 2.6718 0.0631 0.15219 0.11572 0.3114 0.17954 0.46219 0.004 0.007 0.021 0.014 0.0281 0.0281 0.0926 0.21672 0.18446 0.42853 0.28264 0.64244 0.11923 0.2588 0.23285 0.5162 0.3598 0.77072 0.0736 0.14799 0.155 0.29036 0.23145 0.43694 0.19217 0.36892 0.38294 0.7459 0.59124 1.1047 0.0491 0.0905 0.12624 0.16762 0.17954 0.25669 0.15921 0.26792 0.31982 0.53444 0.48815 0.79639 0.0351 0.0561 0.0631 0.12204 0.1024 0.18025 0.0884 0.13536 0.16622 0.27703 0.25669 0.41099 0.014 0.021 0.0351 0.0351 0.0491 0.0491 0.0961 0.14097 0.2097 0.27212 0.30859 0.41099 0.1564 0.22023 0.29948 0.45308 0.46219 0.66769 0.0729 0.0968 0.15711 0.18726 0.23145 0.28265 0.2581 0.33174 0.52321 0.65646 0.79639 0.97621 0.014 0.021 0.0351 0.0351 0.0491 0.0491 0.17464 0.20339 0.33315 0.418 0.5141 0.61649l0.10239 0.10239c0.27564 0.30018 0.55898 0.58564 0.8478 0.87347 0.38084 0.37943 0.77928 0.74807 1.1817 1.1047 0.021 0.014 0.0351 0.0351 0.0491 0.0491 0.0701 0.0631 0.13606 0.11993 0.20549 0.17955 0.31211 0.26932 0.62631 0.54074 0.95062 0.79638 0.19778 0.15641 0.4145 0.28616 0.61649 0.43695 0.0281 0.021 0.0491 0.0561 0.0771 0.0771 0.31912 0.23635 0.64665 0.47131 0.97622 0.69364 0.48533 0.32753 0.98322 0.65296 1.4901 0.95054-0.0793 0.38575-0.13816 0.78341-0.18025 1.1817-0.002 0.014 0.002 0.0351 0 0.0491-0.0421 0.40328-0.0771 0.81883-0.0771 1.2331 0 0.82858 0.0757 1.6331 0.23144 2.415 0.155 0.78187 0.39837 1.5418 0.69364 2.2608 1.3276 3.2352 3.983 5.7523 7.2704 6.808 0.36541 0.11712 0.72499 0.20269 1.1047 0.28264 0.007 0.002 0.0211-0.002 0.0281 0 0.75192 0.1571 1.5408 0.2567 2.3378 0.2567 0.3086 0 0.62281-0.0281 0.92488-0.0491 0.29807 0.45238 0.61859 0.87193 0.97621 1.2845 0.004 0.005-0.004 0.021 0 0.0281 1.7876 2.0561 4.2958 3.5842 7.1677 4.2903 0.28755 0.0708 0.57861 0.12554 0.87346 0.17955 0.007 0.001 0.021-0.001 0.0281 0 0.58212 0.1052 1.192 0.19427 1.7983 0.23145 0.30719 0.021 0.61228 0.0281 0.92488 0.0281 0.38364 0 0.75507-0.021 1.1304-0.0491 1.1259-0.0835 2.2309-0.27633 3.2627-0.59054 0.021-0.006 0.0351-0.021 0.0491-0.0281-0.42993 6.3712-0.85425 12.743-1.2845 19.114 1.0147 0.48884 1.9578 1.172 3.0829 1.3873 1.4114 0.31701 2.8452 0.55898 4.2903 0.64244 2.4951 0.0351 4.956-0.3619 7.4246-0.66769 0.80915-0.12835 1.5981-0.35418 2.3892-0.56529 0.20129-0.0631 0.41801-0.13887 0.61649-0.23145 0.59615-0.27773 1.1416-0.68733 1.3874-1.3102 0.2567-0.72709 0.23355-1.5263 0.28265-2.2865 0.0351-1.0868 0.014-2.1527-0.0771-3.237-0.21251-4.6926-0.39627-9.3918-0.71931-14.078-0.11853-1.7553-0.23355-3.512-0.3598-5.2666 0.19919 0.0561 0.38996 0.12835 0.59125 0.17955 0.014 0.004 0.0351-0.004 0.0491 0 0.0835 0.021 0.17253 0.0281 0.2567 0.0491 1.1642 0.28545 2.361 0.51409 3.571 0.66769 0.014 0.002 0.0351-0.002 0.0491 0 0.11081 0.014 0.22233 0.014 0.33384 0.0281 0.1543 0.0211 0.3072 0.0351 0.46219 0.0491 1.0584 0.1052 2.1252 0.17955 3.2113 0.17955 1.1162 0 2.2268-0.0701 3.3141-0.17955 0.54354-0.0561 1.0831-0.12274 1.6185-0.2055 6.9604-1.0747 13.196-4.392 17.958-9.1972 0.36611-0.36961 0.70479-0.7435 1.0533-1.1304 4.8787-5.4168 7.9832-12.5 8.3752-20.296 0.0281-0.55688 0.0491-1.106 0.0491-1.6699 0-6.8908-2.121-13.276-5.729-18.549 0.0561-0.25389 0.1066-0.51339 0.15429-0.77071 0.14168-0.77276 0.23145-1.5582 0.23145-2.3636 0-8.1394-7.1883-14.89-16.57-16.134-0.6256-0.0828-1.2575-0.14729-1.9011-0.17955-4.0669-10.138-14.588-17.367-26.898-17.367z"/>
      </g>
      <g id="g8419">
        <path id="path7027" d="m-459.54 594.02v105.01c28.842 16.85 62.807 36.033 91.331 52.569l90.704-52.467c-0.009-33.421-0.009-71.484-0.009-104.91l-90.959-52.658c-31.695 18.447-63.905 36.854-91.068 52.448z" transform="matrix(.98951 0 0 .98951 -4.3184 6.6785)" stroke="#000" stroke-width="8.4953" fill="none"/>
        <path id="path6979" d="m-455.41 596.46 86.896-50.169 86.896 50.169-86.896 50.169-86.896-50.169z" fill="#eeeeec"/>
        <path id="path6997" fill="#d3d7cf" d="m-455.41 696.8 87.163 49.961-0.26673-100.15-86.897-50.152v100.34h0.0002z"/>
        <path id="path6999" fill="#888a85" d="m-281.62 696.8-86.663 50.035-0.25626-100.2 86.919-50.175v100.34z"/>
        <path id="path7001" d="m-444.08 615.88 10.862 6.2711v25.085l-10.862-6.2711v-25.085z" fill="#19aeff"/>
        <path id="path7003" d="m-433.22 622.15 10.862 6.2712v25.085l-10.862-6.2712v-25.085z" fill="#19aeff"/>
        <path id="path7005" stroke="#fff" stroke-width=".70794" fill="#fff" d="m-433.22 622.15v25.085-25.085z"/>
        <path id="path7007" d="m-444.08 666.85 10.862 6.2711v25.085l-10.862-6.2711v-25.085z" fill="#19aeff"/>
        <path id="path7009" d="m-433.22 673.13 10.862 6.2712v25.085l-10.862-6.2712v-25.085z" fill="#19aeff"/>
        <path id="path7015" stroke="#fff" stroke-width=".70794" fill="#fff" d="m-433.22 673.13v25.085-25.085z"/>
        <g id="g7074">
          <path id="path7011" fill="#0084c8" d="m-292.94 615.88-10.862 6.2711v25.085l10.862-6.2711v-25.085z"/>
          <path id="path7013" d="m-303.8 622.15-10.862 6.2712v25.085l10.862-6.2712v-25.085z" fill="#0084c8"/>
          <path id="path7017" stroke="#fff" stroke-width=".70794" fill="#fff" d="m-303.27 621.86v25.085-25.085z"/>
        </g>
        <path id="path7019" fill="#3465a4" d="m-409.06 681.16v42.061l25.519 14.671 0.0312-41.874z"/>
        <path id="path7021" fill="#eeeeec" d="m-408.97 715.82-0.125 7.4048 25.551 14.64v-7.561z"/>
        <path id="path7023" fill="#555753" d="m-409.09 681.15 9.2539 5.375-0.25415 34.439-9.0076 2.2563 0.008-42.086z"/>
        <path id="path7025" stroke="#bacae0" stroke-width=".71875" fill="none" d="m-389.01 692.83v34.484"/>
        <g id="g7063" transform="translate(39.125,22.625)">
          <path id="path7057" d="m-444.08 615.88 10.862 6.2711v25.085l-10.862-6.2711v-25.085z" fill="#19aeff"/>
          <path id="path7059" d="m-433.22 622.15 10.862 6.2712v25.085l-10.862-6.2712v-25.085z" fill="#19aeff"/>
          <path id="path7061" stroke="#fff" stroke-width=".70794" fill="#fff" d="m-433.22 622.15v25.085-25.085z"/>
        </g>
        <g id="g7079" transform="translate(-39.75,22.875)">
          <path id="path7081" d="m-292.94 615.88-10.862 6.2711v25.085l10.862-6.2711v-25.085z" fill="#0084c8"/>
          <path id="path7083" d="m-303.8 622.15-10.862 6.2712v25.085l10.862-6.2712v-25.085z" fill="#0084c8"/>
          <path id="path7085" stroke="#fff" stroke-width=".70794" fill="#fff" d="m-303.27 621.86v25.085-25.085z"/>
        </g>
        <g id="g7087" transform="translate(0,48)">
          <path id="path7089" d="m-292.94 615.88-10.862 6.2711v25.085l10.862-6.2711v-25.085z" fill="#0084c8"/>
          <path id="path7091" d="m-303.8 622.15-10.862 6.2712v25.085l10.862-6.2712v-25.085z" fill="#0084c8"/>
          <path id="path7093" stroke="#fff" stroke-width=".70794" fill="#fff" d="m-303.27 621.86v25.085-25.085z"/>
        </g>
        <g id="g7095" transform="translate(-39.75,70.875)">
          <path id="path7097" fill="#0084c8" d="m-292.94 615.88-10.862 6.2711v25.085l10.862-6.2711v-25.085z"/>
          <path id="path7099" d="m-303.8 622.15-10.862 6.2712v25.085l10.862-6.2712v-25.085z" fill="#0084c8"/>
          <path id="path7101" stroke="#fff" stroke-width=".70794" fill="#fff" d="m-303.27 621.86v25.085-25.085z"/>
        </g>
      </g>
      <g id="g8330" transform="matrix(.88204 0 0 .88204 129.51 70.173)" fill-rule="evenodd">
        <path id="path8332" stroke="#000" stroke-width="3.4012" fill="url(#radialGradient8364)" d="m-515.82 756.22c2.7736 0.10065 5.5472 0.2013 8.3208 0.30194 0.53337 5.0324 0.74672 6.7434 2.5602 8.7563 3.2003-1.8117 5.1205-3.6233 5.7605-6.3408 0 0 12.481-1.8116 8.0008 0-2.8803 6.9446-9.6009 7.8505-10.561 13.587-1.1734 6.7434 1.9786 13.822 2.7253 20.264-6.2805 4.4982-13.143 3.4786-18.892 0 3.307-11.373 6.1389-14.325 7.5257-22.679-0.21335-6.4414-3.947-8.3537-5.4405-13.889z"/>
        <path id="path8334" filter="url(#filter7885)" transform="matrix(.14520 0 0 .13699 -552.3 683.61)" fill="url(#linearGradient8366)" d="m484.91 463.86c0 47.475-41.447 85.961-92.573 85.961-51.127 0-92.573-38.486-92.573-85.961s41.447-85.961 92.573-85.961c51.127 0 92.573 38.486 92.573 85.961z"/>
        <path id="path8336" filter="url(#filter7889)" transform="matrix(.14520 0 0 .13699 -539.5 680.9)" fill="url(#linearGradient8368)" d="m279.92 480.39c0 45.649-40.46 82.655-90.369 82.655-49.91 0-90.369-37.006-90.369-82.655s40.46-82.655 90.369-82.655c49.91 0 90.369 37.006 90.369 82.655z"/>
        <path id="path8338" filter="url(#filter7897)" transform="matrix(.14520 0 0 .13699 -546.22 679.69)" fill="url(#linearGradient8370)" d="m251.27 403.25c0 49.301-42.927 89.267-95.88 89.267s-95.88-39.966-95.88-89.267 42.927-89.267 95.88-89.267 95.88 39.966 95.88 89.267z"/>
        <path id="path8340" filter="url(#filter7881)" transform="matrix(.14520 0 0 .13699 -565.75 672.74)" fill="url(#linearGradient8372)" d="m632.58 438.51c0 52.953-43.42 95.88-96.982 95.88-53.561 0-96.982-42.927-96.982-95.88s43.42-95.88 96.982-95.88c53.561 0 96.982 42.927 96.982 95.88z"/>
        <path id="path8342" filter="url(#filter7893)" transform="matrix(.14520 0 0 .13699 -546.54 681.8)" fill="url(#linearGradient8374)" d="m368.09 323.9c0 50.518-40.46 91.471-90.369 91.471-49.91 0-90.369-40.953-90.369-91.471s40.46-91.471 90.369-91.471c49.91 0 90.369 40.953 90.369 91.471z"/>
        <path id="path8344" stroke="#000" d="m-506.11 711.98c-6.3785 0-11.752 3.8238-13.711 9.1467-1.1214-0.19894-2.2972-0.32456-3.4889-0.32456-9.2605 0-16.771 6.3394-16.771 14.133 0 6.7825 5.7033 12.423 13.282 13.779 0.88039 5.953 7.2942 10.592 15.088 10.592 2.8935 0 5.5936-0.66493 7.8958-1.7703 2.5294 1.7992 5.7796 2.8915 9.3342 2.8915 8.0489 0 14.598-5.5433 14.598-12.392 0-0.88853-0.12794-1.7609-0.33664-2.5965 5.0313-2.3722 8.4773-7.1472 8.4773-12.658 0-7.8724-7.0146-14.251-15.669-14.251-1.9914 0-3.9094 0.35751-5.6618 0.97368-2.3776-4.4621-7.3266-7.5239-13.037-7.5239zm-0.30604 2.862c5.2359 0 9.7496 2.8567 11.752 6.9928 1.8473-0.8262 3.9177-1.2982 6.1208-1.2982 7.6162 0 13.802 5.5433 13.802 12.392 0 5.0178-3.343 9.3188-8.1101 11.271 0.17976 0.7323 0.27544 1.4946 0.27544 2.2719 0 6.1405-5.9204 11.124-13.19 11.124-3.3837 0-6.4515-1.09-8.7834-2.862-2.1094 1.2618-4.7016 2.0064-7.498 2.0064-6.9528 0-12.596-4.5884-12.823-10.327-6.8748-0.59127-12.242-5.4995-12.242-11.478 0-6.3767 6.0892-11.566 13.619-11.566 1.5952 0 3.1373 0.25228 4.56 0.67863 1.2949-5.2733 6.3982-9.2057 12.517-9.2057z"/>
        <path id="path8346" d="m165.37 608.87c0 22.602-17.201 40.925-38.42 40.925s-38.42-18.323-38.42-40.925 17.201-40.925 38.42-40.925 38.42 18.323 38.42 40.925z" transform="matrix(.13257 0 0 .11742 -541.89 675.3)" stroke="#000" stroke-width="11.417" fill="#ff5e00"/>
        <path id="path8348" d="m165.37 608.87c0 22.602-17.201 40.925-38.42 40.925s-38.42-18.323-38.42-40.925 17.201-40.925 38.42-40.925 38.42 18.323 38.42 40.925z" transform="matrix(.11679 0 0 .10344 -522.55 687.81)" stroke="#000" stroke-width="11.417" fill="#ff5e00"/>
        <path id="path8350" d="m165.37 608.87c0 22.602-17.201 40.925-38.42 40.925s-38.42-18.323-38.42-40.925 17.201-40.925 38.42-40.925 38.42 18.323 38.42 40.925z" transform="matrix(.11047 0 0 .095054 -497.98 693.03)" stroke="#000" stroke-width="11.417" fill="#ff5e00"/>
        <path id="path8352" d="m165.37 608.87c0 22.602-17.201 40.925-38.42 40.925s-38.42-18.323-38.42-40.925 17.201-40.925 38.42-40.925 38.42 18.323 38.42 40.925z" transform="matrix(.11679 0 0 .10344 -530.79 669.05)" stroke="#000" stroke-width="11.417" fill="#ff5e00"/>
        <path id="path8354" d="m165.37 608.87c0 22.602-17.201 40.925-38.42 40.925s-38.42-18.323-38.42-40.925 17.201-40.925 38.42-40.925 38.42 18.323 38.42 40.925z" transform="matrix(.12626 0 0 .11742 -514.41 666.6)" stroke="#000" stroke-width="11.417" fill="#ff5e00"/>
        <path id="path8356" d="m165.37 608.87c0 22.602-17.201 40.925-38.42 40.925s-38.42-18.323-38.42-40.925 17.201-40.925 38.42-40.925 38.42 18.323 38.42 40.925z" transform="matrix(.10101 0 0 .092258 -498.84 673.8)" stroke="#000" stroke-width="11.417" fill="#ff5e00"/>
      </g>
    </g>
  </g>
  <metadata>
    <rdf:RDF>
      <cc:Work>
        <dc:format>image/svg+xml</dc:format>
        <dc:type rdf:resource="http://purl.org/dc/dcmitype/StillImage"/>
        <cc:license rdf:resource="http://creativecommons.org/licenses/publicdomain/"/>
        <dc:publisher>
          <cc:Agent rdf:about="http://openclipart.org/">
            <dc:title>Openclipart</dc:title>
          </cc:Agent>
        </dc:publisher>
        <dc:title>Iso City grey unit</dc:title>
        <dc:date>2012-01-09T18:08:59</dc:date>
        <dc:description>Iso city grey unit</dc:description>
        <dc:source>http://openclipart.org/detail/166954/isocity-grey-unit-by-rygle</dc:source>
        <dc:creator>
          <cc:Agent>
            <dc:title>rygle</dc:title>
          </cc:Agent>
        </dc:creator>
        <dc:subject>
          <rdf:Bag>
            <rdf:li>building</rdf:li>
            <rdf:li>clip art</rdf:li>
            <rdf:li>clipart</rdf:li>
            <rdf:li>flat</rdf:li>
            <rdf:li>home</rdf:li>
            <rdf:li>house</rdf:li>
            <rdf:li>iso city</rdf:li>
            <rdf:li>isocity</rdf:li>
            <rdf:li>isometric</rdf:li>
            <rdf:li>townhouse</rdf:li>
            <rdf:li>unit</rdf:li>
            <rdf:li>window</rdf:li>
          </rdf:Bag>
        </dc:subject>
      </cc:Work>
      <cc:License rdf:about="http://creativecommons.org/licenses/publicdomain/">
        <cc:permits rdf:resource="http://creativecommons.org/ns#Reproduction"/>
        <cc:permits rdf:resource="http://creativecommons.org/ns#Distribution"/>
        <cc:permits rdf:resource="http://creativecommons.org/ns#DerivativeWorks"/>
      </cc:License>
    </rdf:RDF>
  </metadata>
</svg>
