<svg version="1.1" xmlns="http://www.w3.org/2000/svg">
  <metadata data-license="http://creativecommons.org/licenses/publicdomain/"/>
  <g transform="scale(5)" fill="magenta">
  <g id="small" transform="scale(0.018)">
    <g id="large" transform="translate(35,-30) scale(0.5)">
      <g id="wing" transform="translate(780,120) scale(-0.06) skewX(15) rotate(-30)">
        <path d="M11683 7581 c-137 -110 -296 -306 -428 -524 -50 -82 -188 -293 -307
    -470 -534 -792 -733 -1093 -825 -1249 l-100 -166 -169 -158 c-93 -86 -263
    -250 -379 -364 -115 -114 -251 -241 -301 -282 -118 -99 -385 -300 -391 -294
    -2 2 4 21 15 43 17 32 48 181 40 188 -2 2 -52 -54 -113 -123 -219 -250 -403
    -438 -535 -547 -150 -123 -160 -133 -275 -262 -162 -181 -204 -272 -205 -440
    0 -111 19 -173 75 -247 66 -87 96 -259 76 -434 -12 -106 -14 -109 -113 -312
    -92 -187 -106 -210 -167 -270 -66 -67 -173 -129 -351 -205 -36 -16 -180 -103
    -320 -194 -256 -165 -256 -165 -304 -238 l-47 -74 25 -43 c58 -100 161 -159
    394 -231 84 -25 163 -51 175 -56 13 -6 56 -62 97 -126 150 -233 198 -253 458
    -192 112 26 176 25 227 -4 25 -14 76 -68 137 -144 115 -144 131 -152 206 -105
    l48 29 31 -24 c41 -32 94 -44 139 -31 45 12 108 68 125 111 7 17 13 33 14 35
    1 1 55 -12 121 -29 133 -35 182 -34 221 3 23 21 24 28 19 78 -5 42 -14 62 -36
    85 -17 17 -30 37 -30 45 1 17 157 71 203 70 38 0 63 14 115 63 39 38 42 45 42
    93 0 28 -6 67 -14 85 -8 19 -16 45 -18 59 l-3 25 105 -3 c192 -6 313 25 345
    89 19 36 14 72 -22 143 -13 26 -22 54 -20 61 3 7 32 14 74 17 87 6 156 36 183
    80 36 57 11 131 -56 163 -24 11 -34 23 -34 39 0 21 5 23 58 25 78 2 149 38
    190 94 l31 44 -19 31 c-11 17 -31 38 -45 48 -35 23 -31 38 17 60 75 34 154 99
    177 146 41 86 21 127 -47 92 -21 -10 -41 -20 -46 -23 -6 -2 2 15 15 39 15 24
    55 64 95 94 53 39 69 57 69 76 0 21 -6 26 -35 30 -50 7 -51 34 -3 58 49 25 87
    61 108 101 21 41 12 68 -25 75 -17 3 -44 9 -60 12 l-30 6 37 25 c91 61 143
    139 143 216 0 41 -3 47 -21 47 -12 0 -43 -12 -70 -27 l-49 -28 -22 23 -22 22
    25 0 c67 0 241 186 263 281 4 18 1 31 -10 40 -13 11 -27 9 -82 -10 -40 -13
    -84 -21 -107 -19 l-40 3 60 30 c33 17 65 40 71 52 6 12 24 32 40 45 126 95
    243 243 227 285 -8 21 -53 15 -141 -21 -122 -50 -104 -19 44 74 191 119 234
    155 272 229 19 39 32 79 32 103 0 37 -1 38 -35 38 -37 0 -152 -39 -188 -65
    -12 -8 -26 -15 -31 -15 -21 0 35 45 163 132 75 51 179 126 231 168 52 41 169
    129 260 195 458 330 596 440 750 595 86 87 210 242 210 263 0 10 -115 -25
    -164 -50 -28 -14 -85 -46 -126 -71 -93 -56 -512 -273 -518 -267 -2 2 35 34 84
    72 550 428 936 802 1135 1098 70 105 92 150 93 195 1 33 -1 35 -34 38 -50 4
    -189 -66 -328 -166 -61 -44 -217 -166 -345 -270 -275 -224 -385 -307 -394
    -299 -3 4 30 45 73 93 97 106 104 115 268 344 314 439 436 717 337 769 -48 26
    -87 14 -158 -48 -115 -100 -353 -348 -506 -526 -80 -93 -210 -234 -289 -311
    -173 -171 -448 -415 -460 -408 -4 3 -8 27 -8 53 0 49 0 49 198 282 286 340
    464 571 586 764 139 219 125 194 181 315 27 58 63 129 82 158 39 61 40 71 12
    106 -15 19 -30 26 -54 26 -68 0 -318 -250 -658 -658 -120 -145 -221 -262 -223
    -259 -3 2 46 94 107 203 242 433 442 865 569 1226 40 112 41 118 25 147 -8 17
    -22 31 -29 31 -8 0 -36 -18 -63 -39z m-2943 -3604 c0 -7 -15 -21 -32 -31 l-33
    -19 29 32 c33 35 36 36 36 18z m-115 -90 c-194 -143 -495 -410 -577 -513 -51
    -63 -70 -75 -84 -52 -5 8 19 37 64 78 50 47 72 74 72 91 1 19 37 52 180 162
    98 77 221 165 272 198 96 60 126 75 73 36z m-829 -1977 c-15 -66 -54 -146
    -144 -297 -66 -111 -68 -112 -132 -142 -94 -43 -192 -70 -274 -77 -87 -7 -85
    -5 88 82 263 133 311 177 408 369 34 68 64 123 65 121 1 -1 -4 -26 -11 -56z"/>
      </g>
      <g id="pig" transform="translate(800,800) scale(-0.05)" stroke="none">
        <path d="M5778 11817 c-181 -183 -247 -237 -385 -313 -152 -84 -477 -278 -579
  -347 -112 -75 -204 -162 -559 -532 -156 -163 -335 -314 -395 -333 -64 -21
  -293 -62 -440 -78 -209 -23 -262 -16 -375 48 -49 28 -135 81 -191 118 -113 76
  -307 177 -424 220 -171 63 -237 104 -357 222 -106 104 -131 120 -132 80 0 -9
  -3 -31 -7 -48 -3 -17 3 -77 15 -135 11 -57 25 -142 31 -189 20 -157 71 -454
  95 -555 76 -321 300 -811 424 -929 17 -17 31 -34 31 -39 0 -6 -11 -33 -25 -62
  -24 -48 -26 -63 -27 -206 -1 -85 2 -171 7 -192 6 -32 0 -63 -35 -177 l-43
  -138 -59 -11 c-76 -13 -164 -53 -206 -94 -61 -58 -80 -110 -103 -289 -19 -155
  -35 -541 -23 -580 3 -9 20 -27 39 -38 28 -17 49 -21 107 -20 40 1 95 -1 121
  -5 44 -7 48 -10 45 -34 -2 -18 -10 -27 -24 -29 -43 -6 -68 -49 -65 -111 3 -63
  185 -166 314 -177 39 -3 111 -19 158 -35 48 -16 94 -29 103 -29 25 0 20 -9
  -28 -51 -50 -44 -123 -150 -221 -322 -37 -66 -115 -179 -172 -253 -121 -156
  -160 -235 -205 -417 -39 -157 -60 -201 -153 -327 -44 -58 -89 -129 -101 -158
  -19 -48 -29 -57 -95 -97 -87 -51 -138 -98 -190 -179 -50 -75 -51 -111 -6 -153
  90 -86 384 -171 614 -178 61 -1 116 -6 122 -9 17 -11 90 13 101 34 5 10 16 49
  24 86 13 60 19 71 59 105 36 31 50 54 76 123 18 47 37 88 42 91 5 4 9 -32 10
  -87 0 -111 14 -162 47 -166 42 -6 88 35 146 131 31 51 65 103 76 117 16 20 22
  52 31 150 10 118 10 134 -15 282 -15 87 -29 164 -32 171 -3 8 13 29 38 50 24
  20 54 46 67 58 13 11 48 37 79 56 30 19 78 53 106 74 72 55 132 73 188 59 84
  -23 265 -79 443 -139 251 -83 344 -100 595 -105 158 -4 223 -9 283 -24 43 -11
  80 -21 82 -24 3 -2 -11 -33 -30 -69 -29 -54 -35 -74 -35 -129 l0 -65 -72 -66
  c-72 -66 -140 -163 -169 -242 -12 -34 -11 -41 5 -72 23 -42 122 -110 190 -131
  136 -40 508 -66 537 -36 7 6 38 12 69 12 65 1 117 18 164 53 30 23 35 34 44
  100 7 41 16 87 23 103 l11 29 24 -48 c15 -29 31 -47 42 -47 37 0 90 60 141
  159 28 55 55 102 59 105 4 2 47 -9 96 -26 50 -16 149 -43 220 -59 72 -16 159
  -39 193 -50 l62 -20 76 -142 c89 -165 219 -361 381 -572 102 -134 126 -173
  223 -372 78 -157 122 -236 153 -270 24 -26 61 -69 81 -94 46 -57 236 -175 358
  -223 l37 -14 -2 -318 c-1 -317 -2 -320 -30 -423 -23 -85 -27 -114 -20 -155 4
  -28 8 -91 8 -141 0 -75 -5 -101 -27 -157 -17 -41 -27 -85 -27 -116 0 -33 -13
  -84 -39 -153 -74 -198 -74 -227 1 -294 38 -35 44 -37 90 -33 31 3 57 13 71 27
  30 27 37 27 37 -4 0 -15 10 -31 25 -41 34 -22 156 -14 211 14 52 27 112 86
  121 120 3 15 -3 78 -15 142 -24 131 -18 199 19 229 26 21 59 151 66 261 4 67
  1 86 -31 179 -20 57 -36 123 -36 146 0 82 31 252 65 355 48 146 62 218 70 345
  5 104 4 115 -24 205 l-31 95 31 35 c82 96 125 166 180 294 33 75 59 143 59
  151 0 20 72 29 220 29 100 -1 148 -6 240 -28 200 -48 261 -55 337 -39 l67 13
  45 -43 c25 -24 71 -63 101 -87 30 -25 79 -66 108 -92 113 -102 258 -185 467
  -268 70 -28 148 -61 174 -74 26 -14 86 -34 135 -45 48 -12 95 -25 105 -30 11
  -6 25 -37 36 -78 10 -37 36 -111 58 -163 21 -52 54 -131 72 -175 38 -93 60
  -195 75 -355 6 -64 26 -173 46 -250 27 -103 37 -163 41 -255 4 -87 11 -130 24
  -156 15 -31 18 -59 16 -195 -2 -230 14 -255 154 -242 37 4 60 14 91 38 36 29
  42 31 50 16 37 -65 333 102 368 209 10 31 7 44 -41 152 -37 84 -51 128 -50
  158 1 22 4 95 7 162 l5 122 -50 98 c-28 54 -80 139 -117 188 -122 164 -117
  144 -124 550 -7 347 -7 351 -34 429 -41 122 -114 233 -205 315 -66 61 -85 86
  -131 173 -29 57 -83 157 -120 223 -65 115 -69 128 -105 290 -20 94 -48 204
  -60 245 -103 330 -126 440 -132 635 -3 88 -1 192 4 230 6 46 4 132 -4 247 -19
  266 -74 441 -214 686 -62 107 -145 214 -355 457 -107 124 -473 479 -550 534
  -21 15 -44 44 -54 67 -47 108 -178 299 -321 469 -37 44 -111 132 -164 195
  -133 157 -486 494 -645 614 -36 28 -94 75 -130 106 -66 58 -214 170 -330 251
  -147 104 -271 175 -443 256 -100 47 -262 123 -360 170 -125 60 -249 108 -417
  164 -131 43 -245 79 -254 79 -21 0 -21 -2 11 148 26 124 26 136 27 492 0 282
  -5 435 -23 675 -12 171 -25 325 -28 343 -7 40 -56 80 -107 89 -35 6 -38 4
  -218 -180z m-3328 -4575 l23 -18 -28 -28 c-25 -25 -29 -26 -44 -12 -10 9 -23
  16 -30 16 -21 0 -7 34 19 47 32 16 34 16 60 -5z"/>
      </g>
    </g>
  </g>
  </g>
</svg>
