<svg
  version="1.1"
  viewBox="-180 10 360 180"
  xmlns="http://www.w3.org/2000/svg" >
  <metadata data-license="http://creativecommons.org/licenses/publicdomain/"/>

<defs>
  <linearGradient id="daylight" x1="100%" y1="32%" x2="0%" y2="68%" >
    <stop offset="5%" style="stop-color:#ffffff" />
    <stop offset="90%" style="stop-color:#bbbbbb" />
  </linearGradient>
  <pattern id="brick" x="0" y="0" width="1.5" height="0.5"
           patternUnits="userSpaceOnUse">
    <rect width="1.5" height="0.5" style="fill:rosybrown; stroke-width:0.1; stroke:brown"/>
  </pattern>
  <pattern id="shingles" x="0" y="0" width="1" height="2"
           patternUnits="userSpaceOnUse">
    <rect width="1" height="2" style="fill:slategrey; stroke-width:0.3; stroke:lightslategrey"/>
  </pattern>
  <use id="flying_pig"
       href="../logos/flying_pig.svg#small" 
       fill="#DF4911"/>
  <use id="bike_side"
       href="../items/bikes/bike_rider_icon_side.svg#1px:1ft" 
       fill="green"/>
  <use id="robot_pod"
       href="../items/bike_sized/robot_pod.svg#1px:1ft" 
       fill="green"/>
  <use id="robot_cart"
       href="../items/bike_sized/robot_cart.svg#1px:1ft" 
       fill="green"/>
  <use id="r2d2"
       href="../items/bike_sized/r2d2_side.svg#1px:1ft" 
       fill="green"/>
  <use id="wheelchair"
       href="../items/bike_sized/wheelchair_pictogram_side.svg#1px:1ft" 
       fill="green"
       transform="scale(-1,1)"/>
  <use id="motor_scooter_side"
       href="../items/bike_sized/motor_scooter_side.svg#1px:1ft" 
       fill="green"/>
  <use id="tuk_tuk_side"
       href="../items/bike_sized/tuk_tuk_side.svg#1px:1ft" 
       fill="green"/>
  <use id="kick_scooter_side"
       href="../items/bike_sized/kick_scooter_side.svg#1px:1ft" 
       fill="green"/>
  <use id="desk"
       href="../items/furnishings/desk.svg#1px:1ft"
       stroke="#888"/>
  <g id="desk_person">
    <use href="#desk"/>
    <use href="#person_sitting_office" transform="translate(-2.5 0.5)"/>
  </g>
  <g id="table_people">
    <use href="#person_sitting_office" transform="translate(7 0.3) scale(-1 1)"/>
    <use href="#table"/>
    <use href="#person_sitting_office" transform="translate(-3 0.3)"/>
  </g>
  <!--
  <g id="motor_scooter_front" fill="green">
    <use href="../items/people/person_torso.svg#1px:1ft"/>
    <use href="../items/bike_sized/motor_scooter_front.svg#1px:1ft"/>
  </g>
  <g id="motor_scooter_back" fill="green">
    <use href="../items/bike_sized/motor_scooter_back.svg#1px:1ft"/>
    <use href="../items/people/person_torso.svg#1px:1ft"/>
  </g>
  -->
  <use id="people_at_counter"
       href="../items/people/people_at_counter.svg#1px:1ft" 
       fill="#888"/>
  <use id="person_torso"
       href="../items/people/person_torso.svg#1px:1ft" 
       fill="#888"/>
  <use id="person_walking"
       href="../items/people/person_walking.svg#1px:1ft" 
       fill="darkblue"/>
  <use id="person_reaching"
       href="../items/people/person_reaching.svg#1px:1ft" 
       fill="darkblue"/>
  <use id="person_reaching_office"
       href="../items/people/person_reaching.svg#1px:1ft" 
       fill="#888"/>
  <use id="person_sitting"
       href="../items/people/person_sitting.svg#1px:1ft" 
       fill="darkblue"/>
  <use id="person_sitting_office"
       href="../items/people/person_sitting.svg#1px:1ft" 
       fill="#888"/>
  <use id="table"
       href="../items/furnishings/table.svg#1px:1ft"
       stroke="#888"/>
  <use id="person_swingset"
       href="../items/people/person_swingset.svg#1px:1ft" 
       fill="darkblue"/>
  <use id="trashcan"
       href="../items/furnishings/trashcan.svg#1px:1ft" 
       stroke="black"/>
  <use id="tree"
       href="../items/landscape/tree.svg#1px:1ft" 
       fill="palegreen"/>
  <use id="tree_isometric"
       href="../items/landscape/tree_isometric.svg#1px:1ft"/>
  <g id="floor">
    <polyline stroke="black" fill="none" stroke-width="2"
              points="-15 1, +15 1"/>
  </g>
  <g id="facade_lower">
    <polyline stroke="silver" fill="none" stroke-width="0.1"
              points="-15 -0, -15 -7.5, -17.5 -7.5, -17.5 -0"/>
    <polyline stroke="black" fill="none" stroke-width="1"
              points="-15 -7.5, -15 -8.5"/>
    <polyline stroke="lightblue" fill="none" stroke-width="0.3"
              points="-15 -8.5, -15 -12"/>
  </g>
  <g id="facade_upper">
    <polyline stroke="black" fill="none" stroke-width="1"
              points="-15 -12, -15 -19"/>
    <polyline stroke="lightblue" fill="none" stroke-width="0.3"
              points="-15 -19, -15 -27"/>
    <polyline stroke="black" fill="none" stroke-width="1"
              points="-15 -27, -15 -34"/>
    <polyline stroke="lightblue" fill="none" stroke-width="0.3"
              points="-15 -34, -15 -42"/>
    <polyline stroke="black" fill="none" stroke-width="1"
              points="-15 -42, -15 -45"/>
    <polyline stroke="black" fill="none" stroke-width="0.5"
              points="-16.5 -43, -12.5 -53"/>
  </g>
  <g id="longhouse_ave">
    <!-- highline soil -->
    <polyline
      stroke="black" fill="saddlebrown" stroke-width="0"
      points="-16 -45, +16 -45, +14 -49, -14 -49"/>
    <polyline stroke="none" fill="url(#daylight)"
              points="-0.05 -0, +15 -0, +15 -14, -0.05 -14"/>
    <polyline stroke="none" fill="url(#daylight)" transform="scale(-1 1)"
              points="-0.05 -0, +15 -0, +15 -14, -0.05 -14"/>
    <polyline stroke="none" fill="url(#daylight)"
              points="-0.05 -30, +15 -30, +15 -44, -0.05 -44"/>
    <polyline stroke="none" fill="url(#daylight)" transform="scale(-1 1)"
              points="-0.05 -30, +15 -30, +15 -44, -0.05 -44"/>
    <use href="#floor" transform="translate(0 -15)"/>
    <use href="#floor" transform="translate(0 -30)"/>
    <use href="#floor" transform="translate(0 -45)"/>
    <use href="#facade_lower" transform="translate(0 0)"/>
    <use href="#facade_upper" transform="translate(0 0)"/>
    <use href="#facade_upper" transform="translate(0 0) scale(-1 1)"/>
    <use href="#desk_person" transform="translate(-9.5 -30.2) scale(-1 1)"/>
    <use href="#table_people" transform="translate(5 -30.2)"/>
  </g>
  <g id="longhouse_st">
    <!-- highline soil -->
    <polyline
      stroke="black" fill="saddlebrown" stroke-width="0"
      points="-16 -45, +16 -45, +14 -49, -14 -49"/>
    <polyline stroke="none" fill="url(#daylight)"
              points="-0.05 -0, +15 -0, +15 -14, -0.05 -14"/>
    <polyline stroke="none" fill="url(#daylight)" transform="scale(-1 1)"
              points="-0.05 -0, +15 -0, +15 -14, -0.05 -14"/>
    <polyline stroke="none" fill="url(#daylight)"
              points="-0.05 -15, +15 -15, +15 -29, -0.05 -29"/>
    <polyline stroke="none" fill="url(#daylight)" transform="scale(-1 1)"
              points="-0.05 -15, +15 -15, +15 -29, -0.05 -29"/>
    <use href="#floor" transform="translate(0 -15)"/>
    <use href="#floor" transform="translate(0 -30)"/>
    <use href="#floor" transform="translate(0 -45)"/>
    <use href="#facade_lower" transform="translate(0 0)"/>
    <use href="#facade_upper" transform="translate(0 0)"/>
    <use href="#facade_upper" transform="translate(0 0) scale(-1 1)"/>
    <use href="#desk_person" transform="translate(-9.5 -15.2) scale(-1 1)"/>
    <use href="#table_people" transform="translate(5 -15.2)"/>
  </g>
  <g id="ground-storey">
    <polyline stroke="none" fill="url(#daylight)"
              points="0 -0, 20 -0, 20 -11, 0 -11"/>
    <polyline stroke="black" fill="none" stroke-width="1"
              points="0 -11, 20 -11, 20 -7.5"/>
    <polyline stroke="silver" fill="none" stroke-width="0.1"
              points="20 -0, 20 -7.5, 22.5 -7.5, 22.5 -0"/>
    <use href="#people_at_counter" transform="translate(5 0) scale(1 1)"/>
  </g>
  <g id="storey">
    <polyline stroke="none" fill="url(#daylight)"
              points="0 -1, 20 -1, 20 -11, 0 -11"/>
    <polyline stroke="black" fill="none" stroke-width="1"
              points="0 -1, 20 -1, 20 -4"/>
    <polyline stroke="black" fill="none" stroke-width="1"
              points="0 -11.1, 20 -11.1, 20 -9.5"/>
    <polyline stroke="lightblue" fill="none" stroke-width="0.3"
              points="20 -4, 20 -9.5"/>
    <use href="#table_people" transform="translate(8 -1.8)"/>
  </g>
  <g id="attic">
    <polyline stroke="none" fill="url(#daylight)"
              points="0 -1.5, 22 -1.5, 18 -4, 18 -10, 10 -10, 0 -17.5"/>
    <polyline stroke="black" fill="none" stroke-width="1" stroke-linecap="square"
              points="22 -1, 18 -4, 18 -4.5"/>
    <polyline stroke="lightblue" fill="none" stroke-width="0.3"
              points="18 -5, 18 -9"/>
    <polyline stroke="black" fill="none" stroke-width="1" stroke-linecap="square"
              points="18 -9, 18 -10, 10 -10, 0 -18"/>
    <polyline stroke="black" fill="none" stroke-width="0.5"
              points="10 -10, 8 -11.5, 0 -11.5"/>
    <polyline stroke="grey" fill="none" stroke-width="0.1"
              points="18 -4, 10 -10"/>
    <use href="#desk_person" transform="translate(8 -1.8) scale(-1 1)"/>
  </g>
  <g id="townhouse">
    <use href="#ground-storey" transform="translate(0 0)"/>
    <use href="#storey" transform="translate(0 -10)"/>
    <use href="#storey" transform="translate(0 -20)"/>
    <use href="#attic" transform="translate(0 -30)"/>
  </g>
  <!--
  <g id="backdrop">
    <use href="#bike_side" transform="translate(-45 -30.5)"/>
    <use href="#bike_side" transform="translate(0 -30.5)"/>
    <use href="#bike_side" transform="translate(32 -30.5)"/>
    <use href="#bike_side" transform="translate(44 -30.5)"/>
    <polyline 
      id="backdrop-railing"
      stroke="black" fill="#ddf" fill-opacity="0.7" stroke-width="0.1"
      points="-60 -30, 59 -30, 59 -34, -60 -34"/>
    <polyline 
      id="backdrop-left-floor"
      stroke="black" fill="#ddd" stroke-width="0.1"
      points="-60 -29, -35 -29, -35 -30.5, -60 -30.5"/>
    <polyline 
      id="backdrop-center-floor"
      stroke="black" fill="#ddd" stroke-width="0.1"
      points="-5 -29, 5 -29, 5 -30.5, -5 -30.5"/>
    <polyline 
      id="backdrop-right-floor"
      stroke="black" fill="#ddd" stroke-width="0.1"
      points="35 -29, 59 -29, 59 -30.5, 35 -30.5"/>
    <use href="#tree" transform="translate(-63 -49)"/>
    <polyline 
      id="backdrop-left-top"
      stroke="black" fill="#ddd" stroke-width="0.1"
      points="-60 -44, -35 -44, -35 -53, -60 -53"/>
    <use href="#tree" transform="translate(40 -49)"/>
    <polyline 
      id="backdrop-center-top"
      stroke="black" fill="#ddd" stroke-width="0.1"
      points="-5 -44, 5 -44, 5 -53, -5 -53"/>
    <use href="#person_reaching" transform="translate(45 -49)"/>
    <polyline 
      id="backdrop-right-top"
      stroke="black" fill="#ddd" stroke-width="0.1"
      points="60 -53, 35 -53, 35 -44, 60 -44"/>
  </g>
  -->

  <g id="yAxis+70">
    <title>left section cut, bikeway at 30 feet</title>
    <polyline id="pavement" fill="black"
              points="-70 4, -70 -0, +70 -0, +70 4"/>
    <use href="#townhouse" transform="translate(-70 0)"/>
    <use href="#townhouse" transform="translate(+70 0) scale(-1 1)"/>

    <polyline stroke="lightblue" fill="none" stroke-width="0.3"
              points="-4.5 -13, 0 -15, +4.5 -13"/>
    <use href="#longhouse_st" transform="translate(-20 0)"/>
    <use href="#longhouse_st" transform="translate(+20 0) scale(-1 1)"/>

    <use href="#table_people" transform="translate(-27 -0.1)"/>
    <use href="#table_people" transform="translate(-15 -0.1)"/>
    <use href="#table_people" transform="translate(-3 -0.1)"/>
    <use href="#table_people" transform="translate(+9 -0.1)"/>
    <use href="#table_people" transform="translate(+21 -0.1)"/>

    <!--
    <use href="#motor_scooter_front" transform="translate(-32 -30)"/>
    <use href="#motor_scooter_front" transform="translate(-26 -30)"/>
    <use href="#motor_scooter_front" transform="translate(-20 -30)"/>
    <use href="#motor_scooter_front" transform="translate(-14 -30)"/>

    <use href="#motor_scooter_back" transform="translate(8 -30)"/>
    <use href="#motor_scooter_back" transform="translate(14 -30)"/>
    <use href="#motor_scooter_back" transform="translate(20 -30)"/>
    <use href="#motor_scooter_back" transform="translate(26 -30)"/>
    -->

    <!--
    <use href="#tree" transform="translate(-30 -49)"/>
    -->
    <use href="#trashcan" transform="translate(-25 -49)"/>
    <use href="#person_reaching" transform="translate(-28 -49)"/>

    <!--
    <use href="#tree" transform="translate(4 -49)"/>
    -->
    <use href="#person_sitting" transform="translate(29 -49)"/>

    <use href="#person_walking" transform="translate(-49 0)"/>
    <use href="#person_walking" transform="translate(+36 0)"/>
  </g>

  <g id="xAxis+70">
    <title>right section cut, bikeway at 15 feet</title>
    <polyline id="pavement" fill="black"
              points="-70 4, -70 -0, +70 -0, +70 4"/>
    <use href="#townhouse" transform="translate(-70 0)"/>
    <use href="#townhouse" transform="translate(+70 0) scale(-1 1)"/>

    <polyline stroke="lightblue" fill="none" stroke-width="0.3"
              points="-4.5 -13, 0 -15, +4.5 -13"/>
    <use href="#longhouse_ave" transform="translate(-20 0)"/>
    <use href="#longhouse_ave" transform="translate(+20 0) scale(-1 1)"/>

    <!--
    <use href="#motor_scooter_front" transform="translate(-32 -15)"/>
    <use href="#motor_scooter_front" transform="translate(-26 -15)"/>
    <use href="#motor_scooter_front" transform="translate(-20 -15)"/>
    <use href="#motor_scooter_front" transform="translate(-14 -15)"/>
    -->

    <use href="#person_sitting_office" transform="translate(-25 -0)"/>
    <use href="#person_sitting_office" transform="translate(-20 -0)"/>
    <use href="#person_sitting_office" transform="translate(-15 -0)"/>
    <use href="#person_sitting_office" transform="translate(-10 -0)"/>
    <use href="#person_sitting_office" transform="translate(-5 -0)"/>
    <use href="#person_sitting_office" transform="translate(0 -0)"/>
    <use href="#person_sitting_office" transform="translate(5 -0)"/>
    <use href="#person_sitting_office" transform="translate(10 -0)"/>
    <use href="#person_reaching_office" transform="translate(17 -1.5)"/>
    <polyline fill="#888" points="17 -0, 17 -1.5, 26 -1.5, 26 -0"/>

    <!--
    <use href="#tree" transform="translate(-39 -49)"/>
    <use href="#trashcan" transform="translate(-23 -49)"/>
    <use href="#tree" transform="translate(-27 -49)"/>
    -->
    <use href="#person_reaching" transform="translate(-33.5 -49)"/>
    <use href="#person_walking" transform="translate(-9.5 -49)"/>

    <!--
    <use href="#motor_scooter_back" transform="translate(8 -15)"/>
    <use href="#motor_scooter_back" transform="translate(14 -15)"/>
    <use href="#motor_scooter_back" transform="translate(20 -15)"/>
    <use href="#motor_scooter_back" transform="translate(26 -15)"/>
    -->

    <use href="#person_sitting" transform="translate(8.5 -49)"/>
    <!--
    <use href="#tree" transform="translate(12 -49)"/>
    <use href="#person_swingset" transform="translate(23 -49) scale(-1 1)"/>
    -->

    <use href="#person_walking" transform="translate(-49 0)"/>
    <use href="#person_walking" transform="translate(+36 0)"/>
  </g>

  <g id="xAxis-50">
    <title>far wall</title>
    <polyline data-desc="wall" fill="url(#brick)"
              points="-70 -0, -70 -14, -50 -14, -50 -0"/>
    <polyline data-desc="window" fill="lightcyan"
              points="-70 -14, -70 -19, -50 -19, -50 -14"/>
    <polyline data-desc="wall" fill="url(#brick)"
              points="-70 -19, -70 -24, -50 -24, -50 -19"/>
    <polyline data-desc="window" fill="lightcyan"
              points="-70 -24, -70 -29, -50 -29, -50 -24"/>
    <polyline data-desc="freestanding column" fill="url(#brick)"
              points="-66.5 -0, -66.5 -41, -64.5 -41, -64.5 -0"/>
    <polyline data-desc="roof" fill="url(#shingles)" 
              stroke="black" stroke-width="0.2" 
              points="-69 -29, -91 -72, -70 -50, -50 -29"/>
  </g>

  <g id="xAxis-35">
    <title>inner wall</title>
    <polyline data-desc="wall" fill="url(#brick)"
              points="-70 -13, -70 -18, -50 -18, -50 -13"/>
    <polyline data-desc="window" fill="lightcyan" fill-opacity="0.5"
              points="-70 -18, -70 -26, -50 -26, -50 -18"/>
    <polyline data-desc="wall" fill="url(#brick)"
              points="-70 -26, -70 -33, -50 -33, -50 -26"/>
    <polyline data-desc="window" fill="lightcyan" fill-opacity="0.5"
              points="-70 -33, -70 -41, -50 -41, -50 -33"/>
    <polyline data-desc="freestanding column" fill="url(#brick)"
              points="-66.5 -0, -66.5 -41, -64.5 -41, -64.5 -0"/>
    <polyline data-desc="roof, far" fill="url(#shingles)" 
              stroke="black" stroke-width="0.2"
              points="+34 -49, +70 -49, +70 -44, +34 -44"/>
    <polyline data-desc="roof, middle" fill="url(#shingles)"
              points="-9.9 -44, -9.9 -49, 7 -49, 7 -44"/>
    <polyline data-desc="roof, near" fill="url(#shingles)" 
              stroke="black" stroke-width="0.2"
              points="-68 -49, -10 -49, -10 -44, -68 -44"/>
  </g>

  <g id="xAxis+35_rear">
    <polyline data-desc="wall" fill="url(#brick)"
              points="+70 -0, +70 -7.5, +35.5 -7.5, +35.5 -0"/>
    <polyline data-desc="first floor window" fill="lightcyan"
              points="+70 -7.5, +70 -11.5, +35.5 -11.5, +35.5 -7.5"/>
    <polyline data-desc="wall" fill="url(#brick)"
              points="+70 -11.5, +70 -18, +35.5 -18, +35.5 -11.5"/>
    <polyline data-desc="second floor window" fill="lightcyan" fill-opacity="0.5"
              points="+70 -18, +70 -26, +35.5 -26, +35.5 -18"/>
    <polyline data-desc="wall" fill="url(#brick)"
              points="+70 -26, +70 -33, +35.5 -33, +35.5 -26"/>
    <polyline data-desc="third floor window" fill="lightcyan" fill-opacity="0.5"
              points="+70 -33, +70 -41, +35 -41, +35 -33"/>
    <polyline data-desc="freestanding column" fill="url(#brick)"
              points="+66.5 -0, +66.5 -41, +64.5 -41, +64.5 -0"/>
    <polyline data-desc="edge" stroke="black" stroke-width="0.1" fill="none"
              points="+70 -0, +70 -41"/>
  </g>

  <g id="xAxis-05">
    <title>atrium wall</title>
    <polyline data-desc="wall" fill="url(#brick)"
              points="-70 -13, -70 -18, -50 -18, -50 -13"/>
    <polyline data-desc="second window" fill="lightcyan" fill-opacity="0.5"
              points="-70 -18, -70 -26, -50 -26, -50 -18"/>
    <polyline data-desc="wall" fill="url(#brick)"
              points="-70 -26, -70 -33, -50 -33, -50 -26"/>
    <polyline data-desc="third floor window" fill="lightcyan" fill-opacity="0.5"
              points="-70 -33, -70 -41, -35 -41, -35 -33"/>
    <polyline data-desc="freestanding column" fill="url(#brick)"
              points="-66.5 -0, -66.5 -41, -64.5 -41, -64.5 -0"/>
    <polyline data-desc="roof, near" fill="url(#shingles)"
              points="-69 -40.7, -73 -55.7, -33 -55.7, -37 -40.7"/>
    <polyline data-desc="roof" fill="url(#shingles)"
              points="-4 -40.7, -9.9 -55.7, 5 -55.7, 5 -40.7"/>
    <polyline data-desc="roof, far" fill="url(#shingles)"
              points="39 -40.7, 31 -55.7, +67 -55.7, +71 -40.7"/>

    <polyline data-desc="railing" stroke="black" stroke-width="0.2" fill="none"
              points="-73 -55.7, -35 -55.7"/>
    <polyline data-desc="railing" stroke="black" stroke-width="0.2" fill="none"
              points="-9.9 -55.7, +4.5 -55.7"/>
    <polyline data-desc="railing" stroke="black" stroke-width="0.2" fill="none"
              points="+31 -55.7, +67 -55.7"/>
  </g>

  <g id="xAxis-05_opaque_third_floor_window">
    <polyline data-desc="third floor window" fill="lightcyan"
              points="-70 -33, -70 -41, -35 -41, -35 -33"/>
  </g>

  <g id="xAxis+35">
    <title>near wall</title>
    <polyline data-desc="lowest wall" fill="url(#brick)"
              points="-70 -0, -70 -7.5, -35.5 -7.5, -35.5 -0"/>
    <polyline data-desc="first floor window" fill="lightcyan"
              points="-70 -7.5, -70 -11.5, -35.5 -11.5, -35.5 -7.5"/>
    <polyline data-desc="middle wall" fill="url(#brick)"
              points="-70 -11.5, -70 -18, -35.5 -18, -35.5 -11.5"/>
    <polyline data-desc="second floor window" fill="lightcyan" fill-opacity="0.5"
              points="-70 -18, -70 -26, -35.5 -26, -35.5 -18"/>
    <polyline data-desc="top wall" fill="url(#brick)"
              points="-70 -26, -70 -33, -35.5 -33, -35.5 -26"/>
    <polyline data-desc="third floor window" fill="lightcyan" fill-opacity="0.5"
              points="-70 -33, -70 -41, -35.5 -41, -35.5 -33"/>
    <polyline data-desc="corner column" fill="url(#brick)"
              points="-36.6 -0, -36.6 -41, -35.5 -41, -35.5 -0"/>
    <polyline data-desc="freestanding column" fill="url(#brick)"
              points="-66.5 -0, -66.5 -41, -64.5 -41, -64.5 -0"/>
    <polyline data-desc="roof" fill="url(#shingles)"
              points="-69 -40.7, -73 -55.7, -35.4 -55.7, -35.4 -40.7"/>
    <polyline data-desc="roof" fill="url(#shingles)"
              points="-5 -40.7, -9 -55.7, 5 -55.7, 5 -40.7"/>
    <polyline data-desc="roof" fill="url(#shingles)"
              points="34 -40.7, 30 -55.7, +67 -55.7, +71 -40.7"/>
    <polyline data-desc="railing" stroke="black" stroke-width="0.2" fill="none"
              points="-73 -55.7, -35.3 -55.7"/>
    <polyline data-desc="railing" stroke="black" stroke-width="0.2" fill="none"
              points="-9.9 -55.7, +4.5 -55.7"/>
    <polyline data-desc="railing" stroke="black" stroke-width="0.2" fill="none"
              points="+30 -55.7, +67 -55.7"/>
  </g>

  <g id="zAxis-00">
    <title>ground level</title>
    <defs>
      <polyline id="lawn"
                fill="olivedrab"
                points="-7.5 +35, -7.5 +70, +7.5 +70, +7.5 +35"/>
      <polyline id="longhouse-floor"
                fill="silver"
                points="-35 -70, -35 +70, +35 +70, +35 -70"/>
    </defs>
    <use href="#lawn" transform="translate(+42.5,0)"/>
    <use href="#lawn" transform="translate(-42.5,0)"/>
    <use href="#lawn" transform="translate(0,+42.5) rotate(270)"/>
    <use href="#lawn" transform="translate(0,-42.5) rotate(270) "/>
    <use href="#longhouse-floor" transform="translate(0,0)"/>
    <use href="#longhouse-floor" transform="translate(0,0) rotate(90)"/>
  </g>

  <g id="zAxis-14">
    <title>atrium skylight</title>
    <defs>
      <polyline id="skylight"
                fill="lightblue"
                fill-opacity="0.3"
                points="-5 0, -5 +70, +5 +70, +5 0"/>
    </defs>
    <use href="#skylight" transform="translate(0,0)"/>
    <use href="#skylight" transform="translate(0,0) rotate(270)"/>
  </g>

  <g id="zAxis-15-westbound">
    <title>second-floor westbound</title>
    <defs>
      <g id="second-floor">
        <polyline fill="gainsboro"
                  points="-15 -5, -15 +70, +15 +70, +15 -5"/>
        <g stroke="black" stroke-width="0.1">
          <polyline points="-12 -5, -12 +70"/>
          <polyline points="-6 -5, -6 +70"/>
          <polyline points="-0 -5, -0 +70"/>
          <polyline points="+6 -5, +6 +70"/>
          <polyline points="+12 -5, +12 +70"/>
        </g>
      </g>
    </defs>
    <use href="#second-floor" transform="translate(0,-20) rotate(270)"/>
  </g>

  <g id="zAxis-15-eastbound">
    <title>second-floor eastbound</title>
    <use href="#second-floor" transform="translate(0,+20) rotate(270)"/>
  </g>

  <g id="zAxis-30-southbound">
    <title>third-floor southbound</title>
    <defs>
      <g id="third-floor">
        <polyline fill="gainsboro"
                  points="-15 -5, -15 +70, +15 +70, +15 -5"/>
        <polyline fill="gainsboro"
                  points="+50 +5, +50 +35, +15 +35, +15 +5"/>
        <!--
          <polyline fill="pink"
                  points="+50 -35, +50 -5, +15 -5, +15 -35"/>
        -->
        <g stroke="black" stroke-width="0.1">
          <polyline points="-12 -5, -12 +70"/>
          <polyline points="-6 -5, -6 +70"/>
          <polyline points="-0 -5, -0 +70"/>
          <polyline points="+6 -5, +6 +70"/>
          <polyline points="+12 -5, +12 +70"/>
        </g>
      </g>
    </defs>
    <use href="#third-floor" transform="translate(-20,0)"/>
  </g>

  <g id="zAxis-30-northbound">
    <title>third-floor northbound</title>
    <use href="#third-floor" transform="translate(+20,0)"/>
  </g>

  <g id="zAxis-31">
    <title>townhouse roof</title>
    <polyline fill="url(#shingles)"
              points="+70 +70, 47 70, 47 47, 70 47"/>
  </g>

  <g id="zAxis-49-westbound">
    <title>highline lawn westbound</title>
    <defs>
      <polyline id="highline"
                fill="olivedrab"
                points="-14 -70, -14 +70, +14 +70, +14 -70"/>
    </defs>
    <use href="#highline" transform="translate(0,-20) rotate(90) "/>
  </g>

  <g id="zAxis-49-eastbound">
    <title>highline lawn eastbound</title>
    <use href="#highline" transform="translate(0,+20) rotate(90)"/>
  </g>

  <g id="zAxis-49-southbound">
    <title>highline lawn southbound</title>
    <use href="#highline" transform="translate(-20,0)"/>
  </g>


  <g id="zAxis-49-northbound">
    <title>highline lawn northbound</title>
    <use href="#highline" transform="translate(+20,0)"/>
    <path id="footpath" d="M20 +70 A 2.1 10 0 0 0 20 45 A 1.3 10 0 0 1 20 -10 A 1.3 10 0 0 0 20 -70" stroke="tan" stroke-width="1" fill="none"/>
    <animateMotion href="#footpath_person_1"
                  dur="50s"
                  begin="0s"
                  repeatCount="indefinite">
      <mpath href="#footpath"/> 
    </animateMotion>
    <animateMotion href="#footpath_person_2"
                  dur="50s"
                  begin="20s"
                  repeatCount="indefinite">
      <mpath href="#footpath"/> 
    </animateMotion>
  </g>
</defs>

<g>
  <title>Isometric view of longhouse buildings</title>
  <!-- order:
    "#zAxis-00"
    "#xAxis-50" & scale(-1)
    "#xAxis-35" & scale(-1)
    "#zAxis-15-westbound"
    "#zAxis-30-southbound"
    "#zAxis-49-southbound"
    "#zAxis-49-westbound"
    "#xAxis-05" & scale(-1)
    "#zAxis-14-skylight"
    "#xAxis+05" & scale(-1)
    "#zAxis-15-eastbound"
    "#zAxis-30-northbound"
    "#zAxis-49-northbound"
    "#zAxis-49-eastbound"
    "#xAxis+35" & scale(-1)
    "#zAxis-31-roof"
    "#xAxis+70" & "#yAxis+70"

  -->
  <g transform="scale(1.415,0.815) translate(0,128.5) rotate(45)">
    <use href="#zAxis-00"/>
  </g>


  <g transform="scale(1,1) translate(+35.5,124) skewY(-30)">
    <use href="#xAxis+35_rear"/>
  </g>

  <g transform="scale(-1,1) translate(+35.5,124) skewY(-30)">
    <use href="#xAxis+35_rear"/>
  </g>

  <g transform="scale(1,1) translate(-49.5,75.5) skewY(-30)">
    <use href="#xAxis-50"/>
  </g>

  <g transform="scale(-1,1) translate(-49.5,75.5) skewY(-30)">
    <use href="#xAxis-50"/>
  </g>

  <g transform="scale(1,1) translate(-34.5,83) skewY(-30)">
    <use href="#xAxis-35"/>
  </g>

  <g transform="scale(-1,1) translate(-34.5,83) skewY(-30)">
    <use href="#xAxis-35"/>
  </g>

  <g transform="scale(1.415,0.815) translate(0,109.8) rotate(45)">
    <use href="#zAxis-15-westbound"/>
  </g>

  <g transform="scale(1.415,0.815) translate(0,91) rotate(45)">
    <use href="#zAxis-30-southbound"/>
  </g>

  <use id="westbound_bike_1" href="#bike_side" transform="translate(78,123) scale(1,1) skewY(+30)"/>
  <use id="westbound_bike_2" href="#bike_side" transform="translate(84,120) scale(1,1) skewY(+30)"/>
  <use id="westbound_bike_3" href="#bike_side" transform="translate(90,116) scale(1,1) skewY(+30)"/>
  <use id="westbound_bike_4" href="#bike_side" transform="translate(96,112) scale(1,1) skewY(+30)"/>

  <use id="southbound_bike_1" href="#bike_side" transform="translate(-100,100) scale(1,1) skewY(-30)"/>
  <use id="southbound_bike_2" href="#bike_side" transform="translate(-95,104) scale(1,1) skewY(-30)"/>
  <use id="southbound_bike_3" href="#bike_side" transform="translate(-90,107) scale(1,1) skewY(-30)"/>
  <use id="southbound_bike_4" href="#bike_side" transform="translate(-82,110) scale(1,1) skewY(-30)"/>

  <g transform="scale(1.415,0.815) translate(0,68.3) rotate(45)">
    <use href="#zAxis-49-southbound"/>
    <use href="#zAxis-49-westbound"/>
  </g>

  <g transform="scale(1,1) translate(-4.5,101) skewY(-30)">
    <use href="#xAxis-05"/>
  </g>

  <g transform="scale(-1,1) translate(-4.5,101) skewY(-30)">
    <use href="#xAxis-05_opaque_third_floor_window"/>
    <use href="#xAxis-05"/>
  </g>

  <g transform="scale(1.415,0.815) translate(0,112) rotate(45)">
    <use href="#zAxis-14"/>
  </g>

  <g transform="scale(1.415,0.815) translate(0,109.8) rotate(45)">
    <use href="#zAxis-15-eastbound"/>
  </g>

  <use id="eastbound_tuk_tuk_1" href="#tuk_tuk_side" transform="translate(64,140) scale(-1,1) skewY(-30)"/>
  <use id="eastbound_bike_2" href="#bike_side" transform="translate(58,143) scale(-1,1) skewY(-30)"/>
  <!--
    <use id="eastbound_bike_3" href="#bike_side" transform="translate(52,147) scale(-1,1) skewY(-30)"/>
  -->
  <use id="eastbound_bike_4" href="#bike_side" transform="translate(46,151) scale(-1,1) skewY(-30)"/>

  <use id="eastbound_motor_scooter_2" href="#motor_scooter_side" transform="translate(58,143) scale(-1,1) skewY(-30)"/>
  <use id="eastbound_r2d2_3" href="#r2d2" transform="translate(52,147) scale(-1,1) skewY(-30)"/>
  <use id="eastbound_robot_cart_3" href="#robot_cart" transform="translate(52,147) scale(-1,1) skewY(-30)"/>
  <use id="eastbound_robot_pod_4" href="#robot_pod" transform="translate(46,151) scale(-1,1) skewY(-30)"/>
  <g id="eastbound_kick_scooter_4">
    <use href="#kick_scooter_side" transform="translate(46,151) scale(-1,1) skewY(-30)"/>
    <use href="../items/people/person_reaching.svg#1px:1ft" 
         transform="translate(47,151) scale(-1,1) skewY(-30)"
         fill="green"/>
  </g>
  <use id="eastbound_wheelchair_4" href="#wheelchair" transform="translate(46,151) scale(-1,1) skewY(-30)"/>

  <g transform="scale(1.415,0.815) translate(0,91) rotate(45)">
    <use href="#zAxis-30-northbound"/>
  </g>

  <use id="northbound_bike_1" href="#bike_side" transform="translate(-55,119) scale(-1,1) skewY(+30)"/>
  <use id="northbound_bike_2" href="#bike_side" transform="translate(-48,123) scale(-1,1) skewY(+30)"/>
  <use id="northbound_bike_3" href="#bike_side" transform="translate(-40,125) scale(-1,1) skewY(+30)"/>
  <use id="northbound_bike_4" href="#bike_side" transform="translate(-35,129) scale(-1,1) skewY(+30)"/>

  <g transform="scale(1.415,0.815) translate(0,68.3) rotate(45)">
    <use href="#zAxis-49-eastbound"/>
    <use href="#zAxis-49-northbound"/>
    <use id="footpath_person_1" href="#person_walking" transform="rotate(-50) skewY(-30)"/>
    <use id="footpath_person_2" href="#person_walking" transform="translate(-35,-12) rotate(-50) skewY(-30)"/>
  </g>

  <g transform="scale(1,1) translate(+35.5,124) skewY(-30)">
    <use href="#xAxis+35"/>
  </g>

  <g transform="scale(-1,1) translate(+35.5,124) skewY(-30)">
    <use href="#xAxis+35"/>
  </g>

  <g transform="scale(1.415,0.815) translate(0,90) rotate(45)">
    <use href="#zAxis-31"/>
  </g>

  <g transform="scale(1,1) translate(-70,145) skewY(+30)">
    <use href="#yAxis+70"/>
  </g>

  <g transform="scale(1,1) translate(+70,145) skewY(-30)">
    <use href="#xAxis+70"/>
  </g>

  <use href="#flying_pig" transform="translate(-64,40) scale(1.2)"/>
  <use href="#tree_isometric" transform="translate(-77,74) scale(-1.415,0.815)"/>
  <use href="#tree_isometric" transform="translate(-75,38) scale(-1.415,0.815)"/>
  <use href="#tree_isometric" transform="translate(-40,95) scale(-1.415,0.815)"/>
  <use href="#tree_isometric" transform="translate(-38,62) scale(-1.415,0.815)"/>
  <use href="#tree_isometric" transform="translate(-20,30) scale(-1.415,0.815)"/>
  <use href="#tree_isometric" transform="translate(5,78) scale(-1.415,0.815)"/>
  <use href="#tree_isometric" transform="translate(15,20) scale(-1.415,0.815)"/>
  <use href="#tree_isometric" transform="translate(30,100) scale(-1.415,0.815)"/>
  <use href="#tree_isometric" transform="translate(37,54) scale(-1.415,0.815)"/>
  <use href="#person_swingset" transform="translate(35,54) scale(-1.415,0.815)"/>
  <use href="#tree_isometric" transform="translate(67,75) scale(-1.415,0.815)"/>
  <use href="#tree_isometric" transform="translate(72,34) scale(-1.415,0.815)"/>

  <animateMotion href="#eastbound_tuk_tuk_1"
                 dur="2.5s"
                 repeatCount="indefinite">
    <mpath href="#eastbound"/> 
  </animateMotion>
  <animateMotion href="#eastbound_bike_2"
                 dur="3.33s"
                 repeatCount="indefinite">
    <mpath href="#eastbound"/> 
  </animateMotion>
  <animateMotion href="#eastbound_motor_scooter_2"
                 dur="3.33s"
                 begin="1s"
                 repeatCount="indefinite">
    <mpath href="#eastbound"/> 
  </animateMotion>
  <animateMotion href="#eastbound_r2d2_3"
                 dur="5s"
                 repeatCount="indefinite">
    <mpath href="#eastbound"/> 
  </animateMotion>
  <animateMotion href="#eastbound_robot_cart_3"
                 dur="5s"
                 begin="2.5s"
                 repeatCount="indefinite">
    <mpath href="#eastbound"/> 
  </animateMotion>
  <animateMotion href="#eastbound_kick_scooter_4"
                 dur="10s"
                 begin="0s"
                 repeatCount="indefinite">
    <mpath href="#eastbound"/> 
  </animateMotion>
  <animateMotion href="#eastbound_bike_4"
                 dur="10s"
                 begin="2.5s"
                 repeatCount="indefinite">
    <mpath href="#eastbound"/> 
  </animateMotion>
  <animateMotion href="#eastbound_robot_pod_4"
                 dur="10s"
                 begin="5s"
                 repeatCount="indefinite">
    <mpath href="#eastbound"/> 
  </animateMotion>
  <animateMotion href="#eastbound_wheelchair_4"
                 dur="10s"
                 begin="7.5s"
                 repeatCount="indefinite">
    <mpath href="#eastbound"/> 
  </animateMotion>

  <animateMotion href="#westbound_bike_1"
                 dur="7s"
                 repeatCount="indefinite">
    <mpath href="#westbound"/> 
  </animateMotion>
  <animateMotion href="#westbound_bike_2"
                 dur="6s"
                 repeatCount="indefinite">
    <mpath href="#westbound"/> 
  </animateMotion>
  <animateMotion href="#westbound_bike_3"
                 dur="5s"
                 repeatCount="indefinite">
    <mpath href="#westbound"/> 
  </animateMotion>
  <animateMotion href="#westbound_bike_4"
                 dur="4s"
                 repeatCount="indefinite">
    <mpath href="#westbound"/> 
  </animateMotion>

  <path id="southbound" d="M70.75 -40.75 l -70.75 40.75"/>
  <path id="northbound" d="M0 0 l 70.75 -40.75"/>
  <path id="eastbound" d="M-70.75 -40.75 l 70.75 40.75"/>
  <path id="westbound" d="M0 0 l -70.75 -40.75"/>

  <animateMotion href="#southbound_bike_1"
                 dur="7s"
                 repeatCount="indefinite">
    <mpath href="#southbound"/> 
  </animateMotion>
  <animateMotion href="#southbound_bike_2"
                 dur="6s"
                 repeatCount="indefinite">
    <mpath href="#southbound"/> 
  </animateMotion>
  <animateMotion href="#southbound_bike_3"
                 dur="5s"
                 repeatCount="indefinite">
    <mpath href="#southbound"/> 
  </animateMotion>
  <animateMotion href="#southbound_bike_4"
                 dur="4s"
                 repeatCount="indefinite">
    <mpath href="#southbound"/> 
  </animateMotion>

  <animateMotion href="#northbound_bike_1"
                 dur="4s"
                 repeatCount="indefinite">
    <mpath href="#northbound"/> 
  </animateMotion>
  <animateMotion href="#northbound_bike_2"
                 dur="5s"
                 repeatCount="indefinite">
    <mpath href="#northbound"/> 
  </animateMotion>
  <animateMotion href="#northbound_bike_3"
                 dur="6s"
                 repeatCount="indefinite">
    <mpath href="#northbound"/> 
  </animateMotion>
  <animateMotion href="#northbound_bike_4"
                 dur="7s"
                 repeatCount="indefinite">
    <mpath href="#northbound"/> 
  </animateMotion>
  <!--
    <animateMotion
      href="#moving_bike"
      dur="3s"
      begin="click"
      repeatCount="indefinite"
      fill="freeze">
      <mpath href="#motionPath"/> 
    </animateMotion>
  -->

</g>

</svg>
