<svg
  version="1.1"
  viewBox="-180 40 360 180"
  xmlns="http://www.w3.org/2000/svg" >
  <metadata data-license="http://creativecommons.org/licenses/publicdomain/"/>

<defs>
  <use id="bike_side"
       href="../items/bikes/bike_rider_icon_side.svg#1px:1ft" 
       fill="green"/>
  <use id="desk"
       href="../items/furnishings/desk.svg#1px:1ft"
       stroke="#888"/>
  <g id="desk_person">
    <use href="#desk"/>
    <use href="#person_sitting_office" transform="translate(-2.5 0.5)"/>
  </g>
  <g id="table_people">
    <use href="#person_sitting_office" transform="translate(7 0.3) scale(-1 1)"/>
    <use href="#table"/>
    <use href="#person_sitting_office" transform="translate(-3 0.3)"/>
  </g>
  <g id="motor_scooter_front" fill="green">
    <use href="../items/people/person_torso.svg#1px:1ft"/>
    <use href="../items/bike_sized/motor_scooter_front.svg#1px:1ft"/>
  </g>
  <g id="motor_scooter_back" fill="green">
    <use href="../items/bike_sized/motor_scooter_back.svg#1px:1ft"/>
    <use href="../items/people/person_torso.svg#1px:1ft"/>
  </g>
  <use id="people_at_counter"
       href="../items/people/people_at_counter.svg#1px:1ft" 
       fill="#888"/>
  <use id="person_torso"
       href="../items/people/person_torso.svg#1px:1ft" 
       fill="#888"/>
  <use id="person_walking"
       href="../items/people/person_walking.svg#1px:1ft" 
       fill="darkblue"/>
  <use id="person_reaching"
       href="../items/people/person_reaching.svg#1px:1ft" 
       fill="darkblue"/>
  <use id="person_reaching_office"
       href="../items/people/person_reaching.svg#1px:1ft" 
       fill="#888"/>
  <use id="person_sitting"
       href="../items/people/person_sitting.svg#1px:1ft" 
       fill="darkblue"/>
  <use id="person_sitting_office"
       href="../items/people/person_sitting.svg#1px:1ft" 
       fill="#888"/>
  <use id="table"
       href="../items/furnishings/table.svg#1px:1ft"
       stroke="#888"/>
  <use id="person_swingset"
       href="../items/people/person_swingset.svg#1px:1ft" 
       fill="darkblue"/>
  <use id="trashcan"
       href="../items/furnishings/trashcan.svg#1px:1ft" 
       stroke="black"/>
  <use id="tree"
       href="../items/landscape/tree.svg#1px:1ft" 
       fill="palegreen"/>
  <linearGradient id="daylight" x1="100%" y1="32%" x2="0%" y2="68%" >
    <stop offset="5%" style="stop-color:#ffffff" />
    <stop offset="90%" style="stop-color:#bbbbbb" />
  </linearGradient>
  <g id="floor">
    <polyline stroke="black" fill="none" stroke-width="2"
              points="-15 1, +15 1"/>
  </g>
  <g id="facade_lower">
    <polyline stroke="silver" fill="none" stroke-width="0.1"
              points="-15 -0, -15 -7.5, -17.5 -7.5, -17.5 -0"/>
    <polyline stroke="black" fill="none" stroke-width="1"
              points="-15 -7.5, -15 -8.5"/>
    <polyline stroke="lightblue" fill="none" stroke-width="0.3"
              points="-15 -8.5, -15 -12"/>
  </g>
  <g id="facade_upper">
    <polyline stroke="black" fill="none" stroke-width="1"
              points="-15 -12, -15 -19"/>
    <polyline stroke="lightblue" fill="none" stroke-width="0.3"
              points="-15 -19, -15 -27"/>
    <polyline stroke="black" fill="none" stroke-width="1"
              points="-15 -27, -15 -34"/>
    <polyline stroke="lightblue" fill="none" stroke-width="0.3"
              points="-15 -34, -15 -42"/>
    <polyline stroke="black" fill="none" stroke-width="1"
              points="-15 -42, -15 -45"/>
    <polyline stroke="black" fill="none" stroke-width="0.5"
              points="-16.5 -43, -12.5 -53"/>
  </g>
  <g id="longhouse_ave">
    <polyline
      id="highline-soil"
      stroke="black" fill="saddlebrown" stroke-width="0"
      points="-16 -45, +16 -45, +14 -49, -14 -49"/>
    <polyline stroke="none" fill="url(#daylight)"
              points="-0.05 -0, +15 -0, +15 -14, -0.05 -14"/>
    <polyline stroke="none" fill="url(#daylight)" transform="scale(-1 1)"
              points="-0.05 -0, +15 -0, +15 -14, -0.05 -14"/>
    <polyline stroke="none" fill="white"
              points="-0.05 -15, +15 -15, +15 -29, -0.05 -29"/>
    <polyline stroke="none" fill="white" transform="scale(-1 1)"
              points="-0.05 -15, +15 -15, +15 -29, -0.05 -29"/>
    <polyline stroke="none" fill="url(#daylight)"
              points="-0.05 -30, +15 -30, +15 -44, -0.05 -44"/>
    <polyline stroke="none" fill="url(#daylight)" transform="scale(-1 1)"
              points="-0.05 -30, +15 -30, +15 -44, -0.05 -44"/>
    <use href="#floor" transform="translate(0 -15)"/>
    <use href="#floor" transform="translate(0 -30)"/>
    <use href="#floor" transform="translate(0 -45)"/>
    <use href="#facade_lower" transform="translate(0 0)"/>
    <use href="#facade_upper" transform="translate(0 0)"/>
    <use href="#facade_upper" transform="translate(0 0) scale(-1 1)"/>
    <use href="#desk_person" transform="translate(-9.5 -30.2) scale(-1 1)"/>
    <use href="#table_people" transform="translate(5 -30.2)"/>
  </g>
  <g id="longhouse_st">
    <polyline
      id="highline-soil"
      stroke="black" fill="saddlebrown" stroke-width="0"
      points="-16 -45, +16 -45, +14 -49, -14 -49"/>
    <polyline stroke="none" fill="url(#daylight)"
              points="-0.05 -0, +15 -0, +15 -14, -0.05 -14"/>
    <polyline stroke="none" fill="url(#daylight)" transform="scale(-1 1)"
              points="-0.05 -0, +15 -0, +15 -14, -0.05 -14"/>
    <polyline stroke="none" fill="url(#daylight)"
              points="-0.05 -15, +15 -15, +15 -29, -0.05 -29"/>
    <polyline stroke="none" fill="url(#daylight)" transform="scale(-1 1)"
              points="-0.05 -15, +15 -15, +15 -29, -0.05 -29"/>
    <use href="#floor" transform="translate(0 -15)"/>
    <use href="#floor" transform="translate(0 -30)"/>
    <use href="#floor" transform="translate(0 -45)"/>
    <use href="#facade_lower" transform="translate(0 0)"/>
    <use href="#facade_upper" transform="translate(0 0)"/>
    <use href="#facade_upper" transform="translate(0 0) scale(-1 1)"/>
    <use href="#desk_person" transform="translate(-9.5 -15.2) scale(-1 1)"/>
    <use href="#table_people" transform="translate(5 -15.2)"/>
  </g>
  <g id="ground-storey">
    <polyline stroke="none" fill="url(#daylight)"
              points="0 -0, 20 -0, 20 -11, 0 -11"/>
    <polyline stroke="black" fill="none" stroke-width="1"
              points="0 -11, 20 -11, 20 -7.5"/>
    <polyline stroke="silver" fill="none" stroke-width="0.1"
              points="20 -0, 20 -7.5, 22.5 -7.5, 22.5 -0"/>
    <use href="#people_at_counter" transform="translate(5 0) scale(1 1)"/>
  </g>
  <g id="storey">
    <polyline stroke="none" fill="url(#daylight)"
              points="0 -1, 20 -1, 20 -11, 0 -11"/>
    <polyline stroke="black" fill="none" stroke-width="1"
              points="0 -1, 20 -1, 20 -4"/>
    <polyline stroke="black" fill="none" stroke-width="1"
              points="0 -11.1, 20 -11.1, 20 -9.5"/>
    <polyline stroke="lightblue" fill="none" stroke-width="0.3"
              points="20 -4, 20 -9.5"/>
    <use href="#table_people" transform="translate(8 -1.8)"/>
  </g>
  <g id="attic">
    <polyline stroke="none" fill="url(#daylight)"
              points="0 -1.5, 22 -1.5, 18 -4, 18 -10, 10 -10, 0 -17.5"/>
    <polyline stroke="black" fill="none" stroke-width="1" stroke-linecap="square"
              points="22 -1, 18 -4, 18 -4.5"/>
    <polyline stroke="lightblue" fill="none" stroke-width="0.3"
              points="18 -5, 18 -9"/>
    <polyline stroke="black" fill="none" stroke-width="1" stroke-linecap="square"
              points="18 -9, 18 -10, 10 -10, 0 -18"/>
    <polyline stroke="black" fill="none" stroke-width="0.5"
              points="10 -10, 8 -11.5, 0 -11.5"/>
    <polyline stroke="grey" fill="none" stroke-width="0.1"
              points="18 -4, 10 -10"/>
    <use href="#desk_person" transform="translate(8 -1.8) scale(-1 1)"/>
  </g>
  <g id="townhouse">
    <use href="#ground-storey" transform="translate(0 0)"/>
    <use href="#storey" transform="translate(0 -10)"/>
    <use href="#storey" transform="translate(0 -20)"/>
    <use href="#attic" transform="translate(0 -30)"/>
  </g>
  <!--
  <g id="backdrop">
    <use href="#bike_side" transform="translate(-45 -30.5)"/>
    <use href="#bike_side" transform="translate(0 -30.5)"/>
    <use href="#bike_side" transform="translate(32 -30.5)"/>
    <use href="#bike_side" transform="translate(44 -30.5)"/>
    <polyline 
      id="backdrop-railing"
      stroke="black" fill="#ddf" fill-opacity="0.7" stroke-width="0.1"
      points="-60 -30, 59 -30, 59 -34, -60 -34"/>
    <polyline 
      id="backdrop-left-floor"
      stroke="black" fill="#ddd" stroke-width="0.1"
      points="-60 -29, -35 -29, -35 -30.5, -60 -30.5"/>
    <polyline 
      id="backdrop-center-floor"
      stroke="black" fill="#ddd" stroke-width="0.1"
      points="-5 -29, 5 -29, 5 -30.5, -5 -30.5"/>
    <polyline 
      id="backdrop-right-floor"
      stroke="black" fill="#ddd" stroke-width="0.1"
      points="35 -29, 59 -29, 59 -30.5, 35 -30.5"/>
    <use href="#tree" transform="translate(-63 -49)"/>
    <polyline 
      id="backdrop-left-top"
      stroke="black" fill="#ddd" stroke-width="0.1"
      points="-60 -44, -35 -44, -35 -53, -60 -53"/>
    <use href="#tree" transform="translate(40 -49)"/>
    <polyline 
      id="backdrop-center-top"
      stroke="black" fill="#ddd" stroke-width="0.1"
      points="-5 -44, 5 -44, 5 -53, -5 -53"/>
    <use href="#person_reaching" transform="translate(45 -49)"/>
    <polyline 
      id="backdrop-right-top"
      stroke="black" fill="#ddd" stroke-width="0.1"
      points="60 -53, 35 -53, 35 -44, 60 -44"/>
  </g>
  -->
</defs>

<g id="far_wall" transform="scale(1.2,1.2) translate(57.3,60.2) skewX(30) rotate(30)">
  <polyline id="wall" fill="olivedrab"
            points="0 -0, 0 +17, +56 +17, +70 -0"/>
  <polyline id="wall" fill="tan"
            points="0 -4, 0 -0, +70 -0, +70 -4"/>
  <polyline id="window" fill="lightcyan"
            points="0 -7.5, 0 -4, +70 -4, +70 -7.5"/>
  <polyline id="wall" fill="tan"
            points="0 -14, 0 -7.5, +70 -7.5, +70 -14"/>
  <polyline id="window" fill="lightcyan"
            points="0 -19, 0 -14, +70 -14, +70 -19"/>
  <polyline id="wall" fill="tan"
            points="0 -24, 0 -19, +70 -19, +70 -24"/>
  <polyline id="window" fill="lightcyan"
            points="0 -29, 0 -24, +70 -24, +70 -29"/>
  <polyline id="roof" fill="rosybrown"
            points="0 -72.8, 0 -28.5, +68.5 -28.5, +91 -72.8"/>
</g>
<use href="#far_wall" transform="scale(-1,1)"/>

<g id="middle_wall" transform="scale(1.2,1.2) translate(5.5,82.7) skewX(30) rotate(30)">
  <polyline id="wall" fill="tan"
            points="-5 -19, -5 -12, +70 -12, +70 -19"/>
  <polyline id="window" fill="lightcyan"
            points="-5 -27, -5 -19, +70 -19, +70 -27"/>
  <polyline id="wall" fill="tan"
            points="-5 -34, -5 -27, +70 -27, +70 -34"/>
  <polyline id="window" fill="lightcyan"
            points="-5 -42, -5 -34, +70 -34, +70 -42"/>
  <polyline id="wall" fill="lightcyan"
            points="-5 -12, -5 +4, +56 +4, +70 -12"/>
  <polyline id="wall" fill="olivedrab"
            points="-5 -83, -5 -51, +72 -51, +100 -83"/>
  <polyline id="roof" fill="rosybrown"
            points="-5 -56, -5 -42, +69 -42, +73 -56"/>
</g>
<use href="#middle_wall" transform="scale(-1,1)"/>

<g id="ground" transform="scale(1.2,1.2) translate(5.5,82.7) skewX(30) rotate(30)">
  <polyline id="wall" fill="olivedrab"
            points="-100 -37, -100 -4, +32 -4, +60 -37"/>
</g>
<use href="#ground" transform="scale(-1,1)"/>

<g id="near_wall" transform="scale(1.2,1.2) translate(-41,102.7) skewX(30) rotate(30)">
  <polyline id="wall" fill="olivedrab"
            points="35.4 -0, 35.4 +17, +56 +17, +70 -0"/>
  <polyline id="wall" fill="tan"
            points="35.4 -4, 35.4 -0, +70 -0, +70 -4"/>
  <polyline id="window" fill="lightcyan"
            points="35.4 -12, 35.4 -4, +70 -4, +70 -12"/>
  <polyline id="wall" fill="tan"
            points="35.4 -19, 35.4 -12, +70 -12, +70 -19"/>
  <polyline id="window" fill="lightcyan"
            points="35.4 -27, 35.4 -19, +70 -19, +70 -27"/>
  <polyline id="wall" fill="tan"
            points="35.4 -34, 35.4 -27, +70 -27, +70 -34"/>
  <polyline id="window" fill="lightcyan"
            points="35.4 -42, 35.4 -34, +70 -34, +70 -42"/>
  <polyline id="roof" fill="rosybrown"
            points="35.2 -56, 35.2 -42, +69 -42, +73 -56"/>
</g>
<use href="#near_wall" transform="scale(-1,1)"/>

<g id="left_section" transform="scale(1.2,1.2) translate(-81,120) skewX(30) rotate(30)">
  <polyline id="pavement" fill="black"
            points="-70 4, -70 -0, +70 -0, +70 4"/>
  <use href="#townhouse" transform="translate(-70 0)"/>
  <use href="#townhouse" transform="translate(+70 0) scale(-1 1)"/>

  <polyline stroke="lightblue" fill="none" stroke-width="0.3"
            points="-4.5 -13, 0 -15, +4.5 -13"/>
  <use href="#longhouse_st" transform="translate(-20 0)"/>
  <use href="#longhouse_st" transform="translate(+20 0) scale(-1 1)"/>

  <use href="#table_people" transform="translate(-27 -0.1)"/>
  <use href="#table_people" transform="translate(-15 -0.1)"/>
  <use href="#table_people" transform="translate(-3 -0.1)"/>
  <use href="#table_people" transform="translate(+9 -0.1)"/>
  <use href="#table_people" transform="translate(+21 -0.1)"/>

  <use href="#motor_scooter_front" transform="translate(-32 -30)"/>
  <use href="#motor_scooter_front" transform="translate(-26 -30)"/>
  <use href="#motor_scooter_front" transform="translate(-20 -30)"/>
  <use href="#motor_scooter_front" transform="translate(-14 -30)"/>

  <use href="#motor_scooter_back" transform="translate(8 -30)"/>
  <use href="#motor_scooter_back" transform="translate(14 -30)"/>
  <use href="#motor_scooter_back" transform="translate(20 -30)"/>
  <use href="#motor_scooter_back" transform="translate(26 -30)"/>

  <use href="#tree" transform="translate(-30 -49)"/>
  <use href="#trashcan" transform="translate(-25 -49)"/>
  <use href="#person_reaching" transform="translate(-28 -49)"/>

  <use href="#tree" transform="translate(4 -49)"/>
  <use href="#person_sitting" transform="translate(29 -49)"/>

  <use href="#person_walking" transform="translate(-49 0)"/>
  <use href="#person_walking" transform="translate(+36 0)"/>
</g>

<g id="right_section" transform="scale(1.2,1.2) translate(+81,120) skewX(-30) rotate(-30)">
  <polyline id="pavement" fill="black"
            points="-70 4, -70 -0, +70 -0, +70 4"/>
  <use href="#townhouse" transform="translate(-70 0)"/>
  <use href="#townhouse" transform="translate(+70 0) scale(-1 1)"/>

  <polyline stroke="lightblue" fill="none" stroke-width="0.3"
            points="-4.5 -13, 0 -15, +4.5 -13"/>
  <use href="#longhouse_ave" transform="translate(-20 0)"/>
  <use href="#longhouse_ave" transform="translate(+20 0) scale(-1 1)"/>

  <use href="#motor_scooter_front" transform="translate(-32 -15)"/>
  <use href="#motor_scooter_front" transform="translate(-26 -15)"/>
  <use href="#motor_scooter_front" transform="translate(-20 -15)"/>
  <use href="#motor_scooter_front" transform="translate(-14 -15)"/>

  <use href="#person_sitting_office" transform="translate(-25 -0)"/>
  <use href="#person_sitting_office" transform="translate(-20 -0)"/>
  <use href="#person_sitting_office" transform="translate(-15 -0)"/>
  <use href="#person_sitting_office" transform="translate(-10 -0)"/>
  <use href="#person_sitting_office" transform="translate(-5 -0)"/>
  <use href="#person_sitting_office" transform="translate(0 -0)"/>
  <use href="#person_sitting_office" transform="translate(5 -0)"/>
  <use href="#person_sitting_office" transform="translate(10 -0)"/>
  <use href="#person_reaching_office" transform="translate(17 -1.5)"/>
  <polyline fill="#888" points="17 -0, 17 -1.5, 26 -1.5, 26 -0"/>

  <use href="#tree" transform="translate(-39 -49)"/>
  <use href="#trashcan" transform="translate(-23 -49)"/>
  <use href="#tree" transform="translate(-27 -49)"/>
  <use href="#person_reaching" transform="translate(-33.5 -49)"/>
  <use href="#person_walking" transform="translate(-9.5 -49)"/>

  <use href="#motor_scooter_back" transform="translate(8 -15)"/>
  <use href="#motor_scooter_back" transform="translate(14 -15)"/>
  <use href="#motor_scooter_back" transform="translate(20 -15)"/>
  <use href="#motor_scooter_back" transform="translate(26 -15)"/>

  <use href="#person_sitting" transform="translate(8.5 -49)"/>
  <use href="#tree" transform="translate(12 -49)"/>
  <use href="#person_swingset" transform="translate(23 -49) scale(-1 1)"/>

  <use href="#person_walking" transform="translate(-49 0)"/>
  <use href="#person_walking" transform="translate(+36 0)"/>
</g>

</svg>
