<svg
  version="1.1"
  viewBox="-180 0 360 300"
  xmlns="http://www.w3.org/2000/svg">
  <metadata data-license="http://creativecommons.org/licenses/publicdomain/"/>
<defs>
  <use id="person_walking"
       href="../items/people/person_walking.svg#1px:1ft" 
       fill="darkblue"/>
  <use id="trashcan"
       href="../items/furnishings/trashcan.svg#1px:1ft" 
       stroke="black"/>
  <use id="car_front"
       href="../items/cars/car_front.svg#1px:1ft" 
       fill="#d11"/>
  <use id="car_parked"
       href="../items/cars/car_front.svg#1px:1ft" 
       fill="#666"/>
  <use id="bus_front"
       href="../items/buses/bus_front.svg#1px:1ft" 
       fill="maroon"/>
  <use id="taxi_front"
       href="../items/cars/taxi_front.svg#1px:1ft" 
       fill="#d11"/>
  <use id="motor_scooter_front"
       href="../items/bike_sized/motor_scooter_front.svg#1px:1ft" 
       fill="#d11"/>
  <use id="tree"
       href="../items/landscape/tree.svg#1px:1ft" 
       fill="palegreen"/>
  <use id="person_reaching"
       href="../items/people/person_reaching.svg#1px:1ft" 
       fill="darkblue"/>
  <radialGradient id="radial" cx="10%" cy="70%" r="50%" fx="50%" fy="50%">
    <stop offset="0%" style="stop-color:#eeeeee"/>
    <stop offset="200%" style="stop-color:#666666"/>
  </radialGradient>
  <linearGradient id="daylight" x1="100%" y1="32%" x2="0%" y2="68%" >
    <stop offset="5%" style="stop-color:#dddddd" />
    <stop offset="100%" style="stop-color:#888888" />
  </linearGradient>
  <g id="desk">
    <polyline stroke-width="0.3" points="2 -0, 2 -2.8"/>
    <polyline stroke-width="0.4" points="0 -2.7, 4 -2.7"/>
    <polyline stroke-width="0.5" points="1 -3, 1.5 -5"/>
  </g>
  <g id="ground-storey">
    <polyline stroke="none" fill="url(#daylight)"
              points="0 -0, 20 -0, 20 -11, 0 -11"/>
    <polyline stroke="black" fill="none" stroke-width="1"
              points="0 -11, 20 -11, 20 -7.5"/>
    <polyline stroke="silver" fill="none" stroke-width="0.1"
              points="20 -0, 20 -7.5, 22.5 -7.5, 22.5 -0"/>
  </g>
  <g id="storey">
    <polyline stroke="none" fill="url(#daylight)"
              points="0 -0, 20 -0, 20 -11, 0 -11"/>
    <polyline stroke="black" fill="none" stroke-width="1"
              points="0 -0, 20 -0, 20 -3"/>
    <polyline stroke="black" fill="none" stroke-width="1"
              points="0 -11, 20 -11, 20 -9.5"/>
    <polyline stroke="lightblue" fill="none" stroke-width="0.5"
              points="20 -3, 20 -9.5"/>
    <use href="../items/people/person_sitting.svg#1px:1ft" 
         transform="translate(11 -0.2) scale(-1 1)"
         fill="#888"/>
    <use href="#desk"
         transform="translate(8 -0.5) scale(-1 1)"
         stroke="#888"/>
  </g>
  <g id="parapet">
    <polyline stroke="black" fill="#777777" stroke-width="0.1"
              points="0 -4, 20 -4, 20 -0, 0 -0"/>
    <polyline stroke="black" fill="none" stroke-width="1"
              points="20 -0, 20 -4"/>
    <polyline stroke="black" fill="none" stroke-width="0.3"
              points="17 -0, 20 -3"/>
  </g>
  <g id="building">
    <use href="#parapet" transform="translate(0 -78)"/>
    <use href="#ground-storey" transform="translate(0 -1)"/>
    <use href="#storey" transform="translate(0 -12)"/>
    <use href="#storey" transform="translate(0 -23)"/>
    <use href="#storey" transform="translate(0 -34)"/>
    <use href="#storey" transform="translate(0 -45)"/>
    <use href="#storey" transform="translate(0 -56)"/>
    <use href="#storey" transform="translate(0 -67)"/>
  </g>
</defs>
<g id="1px:1ft" transform="scale(2.64) translate(0,100)">
  <polyline 
    id="pavement"
    fill="black"
    points="-70 4, -70 -1, -30 -1, -30 -0, 30 -0, 30 -1, 70 -1, 70 4"/>
  <use href="#building" transform="translate(-70 0)"/>
  <use href="#building" transform="translate(70 0) scale(-1 1)"/>
  <use href="#person_walking" transform="translate(-49 -1)"/>
  <use href="#trashcan" transform="translate(-32 -1)"/>
  <use href="#car_parked" transform="translate(-29.5 -0)"/>
  <use href="#bus_front" transform="translate(-18 -0)"/>
  <use href="#car_front" transform="translate(-8 -0)"/>
  <use href="#taxi_front" transform="translate(2 -0)"/>
  <use href="#motor_scooter_front" transform="translate(12 -0)"/>
  <use href="#car_parked" transform="translate(23.5 -0)"/>
  <use href="#tree" transform="translate(21 -1)"/>
  <use href="#person_reaching" transform="translate(34 -1)"/>
</g>
</svg>
