<?xml version="1.0" encoding="utf-8"?>
<!DOCTYPE svg PUBLIC "-//W3C//DTD SVG 1.1//EN" "http://www.w3.org/Graphics/SVG/1.1/DTD/svg11.dtd">
<svg version="1.1" xmlns="http://www.w3.org/2000/svg" xmlns:xlink="http://www.w3.org/1999/xlink" x="0px" y="0px" width="360px" height="360px" viewBox="0 0 360 360" enable-background="new 0 0 360 360" xml:space="preserve">

<g id="K" transform="scale(0.75) translate(0, 0)">
  <polygon fill="#999" points="0,480 0,0 62,0 62,480"/>
</g>

<g id="arrow" transform="scale(0.75) translate(0, -30)">
  <polygon fill="#ffe2d6" points="0,270 132,420 480,420 480,120 132,120 0,270"/>
</g>

<g id="Chevron" transform="scale(0.75)">
  <polygon fill="#DF4911" points="210,480 255,480 255,435 84.375,240 255,45 255,0 210,0 0,240"/>
</g>

<g id="I" transform="scale(0.75) translate(225, -30)">
  <polygon fill="#999" points="0,120 0,420 60,420 60,120"/>
</g>

<g id="N" transform="scale(0.75) translate(309, -30)">
  <polygon fill="#999" points="0,120 0,420 60,420 60,270 111,420 171,420 171,120 111,120 111,270 60,120"/>
</g>

<!-- 
<g id="box" transform="translate(0, 0)">
	<g>
	  d<polygon fill="#eee" points="0,360 0,0 360,0 360,360"/>
	</g>
</g>
-->

</svg>

