<?xml version="1.0" encoding="utf-8"?>
<!DOCTYPE svg PUBLIC "-//W3C//DTD SVG 1.1//EN" "http://www.w3.org/Graphics/SVG/1.1/DTD/svg11.dtd">
<svg version="1.1" xmlns="http://www.w3.org/2000/svg" xmlns:xlink="http://www.w3.org/1999/xlink" x="0px" y="0px" width="1000px"
	 height="480px" viewBox="0 0 1000 480" enable-background="new 0 0 1000 480" xml:space="preserve">

<!--
  <rect fill="#FFFFFF" width="1000" height="540"/>
-->

<g id="N" transform="translate(251, -60)">
  <!-- 247 wide -->
	<g>
		<polygon fill="#bbb" points="0,120 0,420 60,420 60,224 187,420 247,420 247,120 187,120 187,316 60,120 		"/>
	</g>
</g>

<g id="y" transform="translate(476, -60)">
  <!-- 246 wide -->
	<g>
		<polygon fill="#bbb" points="0,240 90,420 156,420 66,240 		"/>
		<polygon fill="#bbb" points="30,540 96,540 246,240 180,240 		"/>
	</g>
</g>

<g id="m" transform="translate(700, -60)">
  <!-- 300 wide -->
	<g>
		<polygon fill="#bbb" points="0,240 0,420 60,420 60,240 		"/>
    <path d="M 0 330
             L 60 330
             A 30 30 0 0 1 120 330
             L 120 420
             L 180 420
             L 180 330
             A 90 90 0 0 0 0 330"
             fill="#bbb"/>
    <path d="M 120 330
             L 180 330
             A 30 30 0 0 1 240 330
             L 240 420
             L 300 420
             L 300 330
             A 90 90 0 0 0 120 330" fill="#bbb"/>
	</g>
</g>

<g id="Chevron" transform="scale(0.75)">
  <!-- 255 wide -->
	<g>
		<polygon fill="#D2440C" points="45,480 0,480 0,435 170.625,240 0,45 0,0 45,0 255,240 		"/>
	</g>
</g>

</svg>
