<svg version="1.1" xmlns="http://www.w3.org/2000/svg">
  <metadata data-license="http://creativecommons.org/licenses/publicdomain/"/>
  <g transform="translate(0,500) scale(100)">
    <g id="1px:1ft" transform="scale(0.006) translate(0 -900)">
      <path d="M538.835,260.181c18.18,0,36.08,4.061,52.41,11.83c-8.8-68.67-46.31-120.28-91.25-120.28
        c-44.93,0-82.44,51.59-91.24,120.25c16.07-7.649,33.91-11.8,52.4-11.8H538.835z"/>
      <path d="M505.461,647.489h-10.933c-24.971,0-45.214,20.242-45.214,45.214v110.352 
        c0,24.972,20.243,45.215,45.214,45.215h10.933c24.971,0,45.214-20.243,45.214-45.215V692.703 
        C550.676,667.731,530.433,647.489,505.461,647.489z"/>
      <path d="M688.649,285.135c21.539,0,39-17.461,39-39c0-21.539-17.461-39-39-39c-21.539,0-39,17.461-39,39 
        c0,5.77,1.263,11.24,3.511,16.167l-40.686,45.048c-5.92-5.82-12.479-10.899-19.538-15.148c-16.04-9.65-34.68-15.021-54.1-15.021 
        h-77.68c-27.969,0-54.288,11.13-73.628,30.169l-40.687-45.048c2.248-4.927,3.511-10.397,3.511-16.167c0-21.539-17.461-39-39-39 
        c-21.539,0-39,17.461-39,39c0,21.539,17.461,39,39,39c4.368,0,8.563-0.728,12.484-2.054l39.668,43.92h-70.508 
        c-8.56,0-15.5,6.939-15.5,15.5c0,8.56,6.94,15.5,15.5,15.5h68.83c-0.02,0.559-0.03,1.109-0.03,1.66c0,14.56,5.58,28.96,16.25,39.869 
        c10.49,10.74,16.24,25.08,16.24,39.851c0,2.92-0.22,5.86-0.68,8.79l-29.97,192.2c-2.33,14.939-0.99,30.21,3.9,44.51 
        c6.44,18.84,18.52,34.59,33.97,45.63c9.23,6.6,19.66,11.51,30.81,14.4v-52.21c0-34.301,27.91-62.21,62.21-62.21h10.94
        c34.3,0,62.21,27.909,62.21,62.21v52.21c29.81-7.721,54.48-29.931,64.78-60.03c3.33-9.74,5.01-19.92,5.01-30.15
        c0-4.79-0.37-9.59-1.11-14.359l-29.97-192.2c-2.77-17.76,3-35.78,15.56-48.641c10.67-10.909,16.25-25.31,16.25-39.869 
        c0-0.554-0.034-1.106-0.049-1.66h68.85c8.56,0,15.5-6.94,15.5-15.5c0-8.561-6.94-15.5-15.5-15.5h-70.498l39.668-43.92 
        C680.086,284.406,684.281,285.135,688.649,285.135z"/>
      <path fill="white" d="M541.365,433.03c-10.59,10.58-25.21,17.131-41.37,17.131
        c-16.16,0-30.78-6.551-41.37-17.131c-10.58-10.59-17.13-25.21-17.13-41.359c0-32.31,26.19-58.5,58.5-58.5
        c16.16,0,30.78,6.55,41.37,17.13c10.58,10.59,17.13,25.22,17.13,41.37C558.495,407.82,551.945,422.44,541.365,433.03z"/>
    </g>
  </g>
</svg>
