<svg version="1.1" xmlns="http://www.w3.org/2000/svg">
  <style type="text/css">
    .outline {
      stroke: none;
    }
    .leg {
      fill: none;
      stroke: white;
      stroke-width: 12;
      stroke-linecap: round;
      stroke-linejoin: round;
      stroke-miterlimit: 10;
    }
    .neck {
      fill: none;
      stroke: white;
      stroke-width: 12;
      stroke-linecap: butt;
    }
    .eye {
      fill: white;
      stroke: none;
    }
    .ankle {
      fill: white;
      stroke: white;
      stroke-width: 1;
    }
  </style>
  <g transform="translate(0,2630) scale(100)">
    <g id="1px:1ft" transform="scale(-0.01,0.01) translate(-900,-2690)">
      <path class="outline" d="M756.89,93.34c-4.11-2.38-8.35-4.54-12.72-6.4c-4.28-1.82-8.68-3.36-13.15-4.62
        c-4.45-1.25-8.98-2.2-13.56-2.87c-4.58-0.67-9.22-1.02-13.85-1.06c-4.77-0.04-9.54,0.25-14.28,0.87
        c-4.71,0.62-9.37,1.59-13.95,2.85c-4.55,1.25-9.02,2.86-13.34,4.75c-4.15,1.81-8.18,3.9-12.05,6.25
        c-1.96,1.19-3.88,2.44-5.76,3.76c-0.96,0.67-1.91,1.36-2.84,2.06c-0.53,0.4-0.65,0.67-1.22,0.47c-0.27-0.09-0.52-0.23-0.79-0.32
        c-1.66-0.58-3.25-0.39-4.78,0.43c-0.69,0.37-1.27,0.95-1.95,1.3c-0.47,0.24-0.41,0.07-0.8-0.37c-0.54-0.61-1.07-1.22-1.61-1.83
        c-0.8-0.91-1.6-1.81-2.4-2.72c-2.21,1.94-4.41,3.89-6.62,5.83c-1.61,1.41-3.21,2.83-4.82,4.24c-0.59,0.52-1.18,1.04-1.78,1.57
        c-0.21,0.18-0.89,0.59-0.97,0.86c-0.16,0.49,1.75,2.19,2.13,2.62c0.7,0.79,1.4,1.59,2.1,2.38c0.21,0.24,0.91,0.82,0.87,1.1
        c-0.05,0.39-0.93,1.19-1.17,1.54c-0.29,0.43-0.57,0.86-0.81,1.32c-0.26,0.49-0.49,1-0.66,1.53c-0.46,1.44-0.45,2.96-0.15,4.43
        c0.1,0.46,0.22,0.92,0.37,1.36c0.06,0.17,0.25,0.49,0.24,0.66c-0.02,0.29-0.43,0.72-0.59,0.97c-0.74,1.15-1.46,2.31-2.15,3.48
        c-3.02,5.12-5.62,10.46-7.8,15.99c-2.11,5.34-3.8,10.86-5.07,16.46c-1.29,5.69-2.14,11.47-2.58,17.28
        c-0.42,5.64-0.43,11.31-0.04,16.95c0.4,5.83,1.23,11.64,2.48,17.35c1.27,5.79,3.08,11.4,4.89,17.03
        c2.03,6.32,4.07,12.63,6.1,18.95c0.62,1.93,1.25,3.87,1.87,5.8c1.45,4.49,2.89,8.98,4.34,13.47c2.24,6.96,4.49,13.92,6.73,20.89
        c2.67,8.27,5.33,16.55,8,24.82c2.74,8.5,5.48,17,8.22,25.51c2.46,7.65,4.93,15.3,7.39,22.95c1.82,5.63,3.63,11.27,5.45,16.9
        c0.55,1.72,1.11,3.45,1.66,5.17c0.24,0.76,0.72,1.67,0.79,2.47c0.08,0.8-0.51,1.87-0.75,2.63c-1.04,3.24-2.07,6.49-3.11,9.73
        c-2.51,7.85-5.02,15.71-7.54,23.56c-0.47,1.48-0.95,2.96-1.42,4.44c-0.29,0-0.69-0.22-0.97-0.31c-0.72-0.23-1.44-0.46-2.15-0.69
        c-0.39-0.12-1.41-0.65-1.68-0.4c-0.27,0.24-0.38,1.2-0.49,1.54c-0.31,0.98-0.63,1.96-0.94,2.93c-1.71,5.35-3.42,10.69-5.13,16.04
        c-0.46,1.43-0.92,2.86-1.37,4.29c-1.47-0.47-2.94-0.94-4.41-1.41c-1.95,6.11-3.91,12.22-5.86,18.34c-0.1,0.31-0.17,0.93-0.38,1.19
        c-0.18,0.22-0.02,0.1-0.39,0.17c-0.68,0.12-1.49,0-2.17,0c-1.06,0-2.12,0-3.17,0c-1.82,0-5.36-0.71-5.57,1.99
        c-0.06,0.82,0,1.66,0,2.48c0,0.69,0.12,1.35-0.22,1.93c-0.33,0.57-0.71,1.07-0.98,1.67c-0.51,1.16-0.75,2.42-0.7,3.69
        c0.05,1.47,0.5,2.92,1.28,4.17c0.35,0.56,0.61,0.75,0.61,1.41c0,1.22,0,2.43,0,3.65c0,7.16,0,14.32,0,21.48c0,0.16,0,0.33,0,0.49
        c-1.61,0-3.23,0-4.84,0c-0.65,0-0.73-0.1-1.09,0.27c-1,1.05-1.76,2.53-2.58,3.72c-3.88,5.58-7.76,11.17-11.63,16.75
        c-4.92,7.09-9.85,14.18-14.77,21.27c-3.84,5.52-7.67,11.04-11.51,16.57c-0.54,0.77-1.08,1.55-1.61,2.32
        c-0.28,0.4-0.72,0.85-0.91,1.31c-0.15,0.36-0.17,0.22,0.1,0.65c0.85,1.32,1.69,2.64,2.54,3.95c1.15,1.79,2.3,3.58,3.45,5.37
        c0.46,0.71,0.91,1.42,1.37,2.13c0.21,0.32,0.46,0.98,0.78,1.21c0.47,0.35,1.83,0.1,2.42,0.1c5.91,0,11.82,0,17.73,0
        c8.56,0,17.11,0,25.67,0c7.41,0,14.81,0,22.22,0c2.65,0,5.29,0,7.94,0c4.36,0,8.72,0,13.08,0c8.16,0,16.31,0,24.47,0
        c8.18,0,16.36,0,24.55,0c2.88,0,5.76,0,8.65,0c0.94,0,1.87,0,2.81,0c0.47,0,1.09,0.11,1.56,0c0.37-0.08,0.3-0.06,0.57-0.48
        c0.87-1.35,1.73-2.7,2.6-4.05c1.15-1.79,2.29-3.57,3.44-5.36c0.45-0.7,0.89-1.39,1.34-2.09c0.17-0.26,0.68-0.8,0.72-1.12
        c0.06-0.52-1-1.6-1.3-2.04c-1.37-1.98-2.75-3.96-4.12-5.94c-4.4-6.33-8.79-12.66-13.19-18.99c-4.83-6.95-9.66-13.9-14.48-20.85
        c-3.11-4.48-6.23-8.97-9.34-13.45c-0.22-0.31-0.47-0.89-0.78-1.12c-0.26-0.19-0.52-0.13-0.89-0.13c-3.68,0-7.36,0-11.05,0
        c-2.63,0-5.25,0-7.88,0c2.37-0.45,4.71-1.17,6.84-2.31c0.45-0.24,0.89-0.5,1.31-0.77c0.28-0.19,0.71-0.64,1.04-0.74
        c0.33-0.09,0.82,0.18,1.16,0.29c0.89,0.29,1.79,0.57,2.68,0.86c3.03,0.97,6.15,2.48,9.39,1.64c2.7-0.7,4.92-2.75,5.84-5.38
        c0.73-2.11,0.59-4.47-0.4-6.47c-1.76-3.59-5.2-4.37-8.69-5.49c-0.56-0.18-1.12-0.36-1.68-0.54c0.38-1.2,0.76-2.39,1.15-3.59
        c1.47,0.47,2.94,0.94,4.41,1.41c1.08-3.38,2.16-6.75,3.24-10.13c0.2-0.64,0.34-1.42,0.65-2.02c0.18-0.35,0.07-0.24,0.46-0.41
        c1.73-0.76,3.7-1.19,5.5-1.77c0.97-0.31,1.94-0.62,2.91-0.94c0.24-0.08,0.83-0.4,1.08-0.34c0.42,0.1,1.1,0.98,1.41,1.26
        c2.74,2.46,5.48,4.91,8.22,7.37c3.4,3.05,6.8,6.1,10.2,9.14c1.31,1.17,2.62,2.35,3.93,3.52c0.54,0.48,1.32,1.53,2.01,1.8
        c0.31,0.12,0.52-0.02,0.89-0.14c1.12-0.36,2.23-0.72,3.35-1.08c3.88-1.25,7.77-2.5,11.65-3.75c6.89-2.22,13.79-4.45,20.68-6.66
        c0.13-0.04,0.26-0.08,0.38-0.12c-2.27,0.73-4.16,2.43-5.12,4.61c-0.76,1.73-0.92,3.7-0.44,5.53c0.59,2.27,2.15,4.23,4.23,5.32
        c1.69,0.89,3.67,1.18,5.55,0.8c1.46-0.29,2.88-0.87,4.29-1.32c2.98-0.96,5.96-1.92,8.94-2.88c0.21-0.07,0.41-0.13,0.62-0.2
        c0.49,4.5,0.98,9,1.47,13.5c-0.6,0-1.86-0.25-2.35,0.05c-0.19,0.12-0.36,0.52-0.49,0.7c-0.82,1.18-1.64,2.36-2.46,3.54
        c-3.12,4.49-6.24,8.98-9.35,13.47c-4.04,5.82-8.09,11.64-12.13,17.46c-3.79,5.45-7.57,10.9-11.36,16.36
        c-2.29,3.3-4.58,6.59-6.87,9.89c-0.43,0.63-0.8,0.76-0.38,1.41c1.62,2.52,3.23,5.04,4.85,7.56c0.83,1.29,1.66,2.58,2.48,3.87
        c0.19,0.3,0.53,1.14,0.85,1.31c0.2,0.1,0.72,0,0.94,0c0.74,0,1.48,0,2.22,0c5.76,0,11.53,0,17.29,0c6.97,0,13.94,0,20.92,0
        c3.66,0,7.33,0,10.99,0c2.76,0,5.52,0,8.28,0c6.62,0,13.24,0,19.86,0c6.68,0,13.36,0,20.04,0c2.22,0,4.43,0,6.65,0
        c0.6,0,1.2,0,1.8,0c0.14,0,0.48,0.06,0.61-0.01c0.15-0.08,0.31-0.48,0.4-0.62c0.29-0.46,0.59-0.92,0.88-1.37
        c0.89-1.39,1.79-2.78,2.68-4.17c0.92-1.43,1.83-2.86,2.75-4.28c0.36-0.55,0.71-1.11,1.07-1.66c0.16-0.24,0.54-0.63,0.59-0.92
        c0.08-0.42-0.5-0.98-0.76-1.36c-0.95-1.36-1.89-2.73-2.84-4.09c-3.27-4.71-6.54-9.41-9.81-14.12
        c-4.07-5.86-8.14-11.72-12.21-17.58c-3.69-5.32-7.38-10.63-11.08-15.95c-2.07-2.98-4.14-5.97-6.22-8.95
        c-0.08-0.12-0.23-0.44-0.36-0.52c-0.2-0.11-0.73-0.01-0.95-0.01c-0.63,0-1.26,0-1.89,0c0.16,0,0.98-6.25,1.05-6.68
        c0.48-3.06,0.96-6.13,1.44-9.19c0.14-0.9,0.36-0.99,1.07-1.63c0.72-0.65,1.4-1.35,2.02-2.1c0.77-0.94,1.46-1.97,1.94-3.09
        c0.67-1.56,0.92-3.33,0.32-4.96c4.4-1.42,8.88-2.67,13.21-4.26c2.25-0.83,4.09-2.62,4.96-4.86c0.67-1.74,0.75-3.68,0.21-5.47
        c-0.68-2.27-2.34-4.19-4.49-5.2c-1.72-0.81-3.69-1.01-5.54-0.56c-0.21,0.05-0.41,0.11-0.61,0.17c5.23-1.68,10.46-3.37,15.68-5.05
        c6.27-2.02,12.54-4.04,18.82-6.06c0.41-0.13,0.37-0.08,0.53-0.4c0.33-0.69,0.37-1.7,0.54-2.44c0.74-3.38,1.49-6.76,2.23-10.14
        c1.5-6.8,2.99-13.6,4.49-20.39c0.1-0.47,0.06-0.61,0.4-0.82c0.39-0.24,1.01-0.33,1.45-0.47c0.79-0.26,1.59-0.51,2.38-0.77
        c3.49-1.12,6.98-2.25,10.47-3.37c0.24-0.08,0.49-0.16,0.73-0.24c-0.39-1.21-0.78-2.42-1.17-3.63c-1.09-3.38-2.17-6.75-3.26-10.13
        c-1.66-5.14-3.31-10.28-4.97-15.42c-2.11-6.56-4.23-13.13-6.34-19.69c-2.45-7.59-4.89-15.18-7.34-22.77
        c-2.64-8.21-5.29-16.41-7.93-24.62c-2.74-8.51-5.48-17.01-8.22-25.52c-2.7-8.4-5.41-16.79-8.11-25.19
        c-2.54-7.88-5.08-15.76-7.61-23.64c-2.27-7.04-4.54-14.08-6.8-21.12c-1.87-5.79-3.73-11.59-5.6-17.38
        c-1.34-4.15-2.68-8.31-4.01-12.46c-0.7-2.17-1.4-4.33-2.09-6.5c-1.02-3.18-2.05-6.36-3.07-9.53c-1.96-6.1-3.89-12.21-5.89-18.3
        c-1.73-5.25-3.82-10.38-6.25-15.34c-1.3-2.66-2.69-5.27-4.19-7.82c-0.78-1.34-1.58-2.66-2.41-3.97c-0.33-0.53-0.67-1.05-1.02-1.57
        c-0.34-0.52-0.89-0.99-0.77-1.57c0.16-0.79,0.82-1.69,1.17-2.42c0.42-0.87,0.84-1.75,1.27-2.62c0.32-0.66,0.21-0.68-0.2-1.34
        c-0.39-0.62-0.8-1.24-1.21-1.85c-1.64-2.45-3.41-4.8-5.28-7.08c-3.62-4.42-7.68-8.51-12.11-12.12c-4.26-3.47-8.88-6.47-13.73-9.05
        c-0.9-0.48-1.09-0.5-2.09-0.3c-0.63,0.13-1.26,0.26-1.88,0.41C759.43,92.61,758.16,92.97,756.89,93.34z"/>
      <g id="front-foot">
        <path class="ankle" d="M788.02,479.84
          l-20.73,6.68
          l-2.91,0.94
          l5.16,16.02
          l23.32-7.51
          l16.13-5.2
          l27.89-8.99
          l1.7-0.55
          l0.69-0.22
          l-0.31-0.97
          l-0.9-2.8
          l-2.49-7.73
          l-1.01-3.14
          l-0.44-1.37
          l-0.69,0.21
          l-2.1,0.68
          l-6.87,2.21
          l-13.17,4.24
          l-0.83,0.27z"/>
        <path class="ankle" d="M764.38,487.45
          c-3.5,1.13-5.91,4.52-5.83,8.19
          c0.07,3.6,2.53,6.84,5.98,7.88
          c1.63,0.49,3.39,0.47,5.01-0.05z"/>
        <path class="ankle" d="M834.12,464.99
          c3.39-1.09,7.2,0.12,9.34,2.99
          c1.89,2.55,2.18,6.04,0.73,8.86
          c-1.01,1.97-2.8,3.49-4.91,4.17z"/>
      </g>
      <line class="neck" x1="608.76" y1="240.28" x2="814.28" y2="174.07"/>
      <path class="eye" d="M778.9,137.99c-3.1-2.54-7.31-4.11-11.26-2.8c-4.92,1.63-7.26,6.88-7.58,11.71
        c-0.39,5.88,1.72,12.01,5.57,16.46c3.22,3.73,8.32,6.7,13.36,5.19c4.79-1.43,7.25-6.31,7.76-10.97c0.07-0.63,0.11-1.26,0.11-1.9
        c-1.9,0.81-3.79,1.78-5.74,2.44c-0.86,0.29-1.77,0.34-2.66,0.19c-1.88-0.32-3.53-1.47-4.78-2.87c-2.78-3.12-4.15-8.06-2.58-12.06
        c1.4-3.55,5.31-4.4,8.51-5.77"/>
      <path class="eye" d="M779.62,137.61c-3.32,1.46-4.14,5.58-3.66,8.83c0.53,3.63,2.71,7.47,6.16,9.05
        c3.34,1.53,6.81-0.13,8.02-3.58c1.2-3.43,0.3-7.47-1.67-10.43c-1.59-2.38-4.3-4.57-7.33-4.26
        C780.62,137.27,780.11,137.4,779.62,137.61z"/>
      <g id="side-leg">
        <path class="leg" d="M723.06,349.93 l-28,88"/>
        <path class="leg" d="M723.06,349.93 m-50,-14 l-28,86"/>
        <path id="shoudler" class="leg" d="M723.06,349.93
          c6.17-1.18,12.34-2.36,18.51-3.54
          c1.56-0.3,3.12-0.6,4.68-0.9
          c0.4-0.08,1.59-0.08,1.91-0.37
          c0.13-0.11,0.19-0.58,0.24-0.74
          c0.23-0.72,0.46-1.45,0.69-2.17
          c1.97-6.15,3.93-12.3,5.9-18.46
          c2.51-7.85,5.02-15.7,7.53-23.55
          c1.55-4.84,3.09-9.67,4.64-14.51
          c1.27-3.96,2.12-8.02,2.39-12.18
          c0.31-4.75-0.08-9.55-1.16-14.19
          c-1.16-4.95-3.09-9.7-5.72-14.05
          c-2.76-4.58-6.29-8.69-10.39-12.11
          c-3.97-3.32-8.48-5.99-13.29-7.9
          c-4.59-1.81-9.47-2.92-14.4-3.26
          c-4.65-0.32-9.35,0.02-13.9,1.04
          c-4.94,1.1-9.7,2.98-14.06,5.54
          c-4.54,2.67-8.64,6.09-12.08,10.08
          c-3.38,3.91-6.12,8.36-8.1,13.13
          c-1.34,3.23-2.3,6.63-3.36,9.95
          c-2.23,6.97-4.45,13.93-6.68,20.9
          c-2.42,7.56-4.83,15.11-7.25,22.67
          c-0.8,2.52-1.61,5.03-2.41,7.55
          c-0.22,0.7-0.45,1.39-0.67,2.09
          c-0.05,0.16-0.24,0.5-0.19,0.66
          c0.13,0.49,1.2,1.25,1.53,1.61
          c1.11,1.17,2.23,2.33,3.34,3.5
          c2.83,2.96,5.67,5.93,8.5,8.89
          c1.43,1.49,2.85,2.98,4.28,4.47"/>
        <path id="ankle" class="leg" d="M663.98,488.05
          m14.6, 4.67
          m3.05, 0.98
          m0.66, 0.11
          m0.35 -1.09
          m0.68 -2.14
          m1.12 -3.5
          l5.04 -15.75
          l5.99 -18.73
          l2.21 -6.92
          l0.72 -2.25
          l0.39 -1.22"/>
      </g>
    </g>
  </g>
</svg>
