<svg version="1.1" xmlns="http://www.w3.org/2000/svg">
  <metadata data-license="http://creativecommons.org/licenses/publicdomain/"/>
  <g transform="translate(0,25) scale(5)">
    <g id="1px:1ft" transform="translate(0,-5) scale(0.2)">
      <path d="M20.91,8l.2-2H17.5L16,4A5.11,5.11,0,0,0,12,2,5,5,0,0,0,8,3.93L6.37,6H2.89l.2,2H2v2H3.29l.8,8H5.18A2.77,2.77,0,0,0,5,19a3,3,0,0,0,6,0,2.77,2.77,0,0,0-.18-1h2.36A2.77,2.77,0,0,0,13,19a3,3,0,0,0,6,0,2.77,2.77,0,0,0-.18-1h1.09l.8-8H22V8ZM8,10h2v4H8Zm6,4V10h2v4ZM9.57,5.17A3,3,0,0,1,12,4a3.1,3.1,0,0,1,2.45,1.22L15,6H8.92ZM9,19a1,1,0,1,1-1-1A1,1,0,0,1,9,19Zm8,0a1,1,0,1,1-1-1A1,1,0,0,1,17,19Z"/>
    </g>
  </g>
</svg>
