<svg version="1.1" xmlns="http://www.w3.org/2000/svg">
  <metadata data-license="http://creativecommons.org/licenses/publicdomain/"/>
  <g transform="translate(0,25) scale(5)">
    <g id="1px:1ft" transform="translate(0,-5) scale(0.2)">
      <path d="M22,10.5A6.52,6.52,0,0,0,16,4V3H14V4H10V3H8V4A6.52,6.52,0,0,0,2,10.5,6.39,6.39,0,0,0,3.83,15H2v2H3.18A3,3,0,0,0,3,18a3,3,0,0,0,6,0,3,3,0,0,0-.18-1h6.37A3,3,0,0,0,15,18a3,3,0,0,0,6,0,3,3,0,0,0-.18-1H22V15H20.17A6.39,6.39,0,0,0,22,10.5ZM6,19a1,1,0,1,1,1-1A1,1,0,0,1,6,19Zm13-1a1,1,0,1,1-1-1A1,1,0,0,1,19,18Z"/>
    </g>
  </g>
</svg>
