<svg version="1.1" xmlns="http://www.w3.org/2000/svg">
  <metadata data-license="http://creativecommons.org/licenses/publicdomain/"/>
  <g transform="translate(120,270) scale(12 10)">
    <g id="1px:1ft" transform="translate(-12,-27) scale(0.05 0.06)">
      <path d="M209.592,317.285c2.162,42.138,0.494,94.025-18.773,108.948c-66.421,51.433,5.674,64.134,52.323,63.548    c46.66,0.586,118.752-12.115,52.331-63.548c-17.249-13.357-20.391-56.354-19.311-95.443    C246.323,305.856,209.592,317.285,209.592,317.285L209.592,317.285z" style="fill-rule:evenodd;clip-rule:evenodd;fill:#7F683F;stroke:#684B43;stroke-width:0.2268;stroke-miterlimit:10;"/>
      <polygon points="137.784,163.226 197.026,64.258 187.85,59.815   " style="fill-rule:evenodd;clip-rule:evenodd;fill:#6EB644;"/>
      <polygon points="251.642,47.743 201.577,151.148 260.824,52.178   " style="fill-rule:evenodd;clip-rule:evenodd;fill:#6EB644;"/>
      <polygon points="258.625,114.67 208.556,218.079 267.8,119.108   " style="fill-rule:evenodd;clip-rule:evenodd;fill:#6EB644;"/>
      <g>
        <path d="M210.868,337.037c0,0,40.577-12.617,73.539,14.919     c13.187-6.38,23.484-17.269,28.565-30.482c6.677,9.279,18.008,15.393,30.874,15.393c20.543,0,37.193-15.575,37.193-34.799     c0-4.22-0.801-8.271-2.282-12.013c3.444,0.539,6.978,0.814,10.574,0.814c35.354,0,64.007-26.811,64.007-59.889     c0-14.82-5.76-28.393-15.296-38.846c5.675-6.117,9.119-14.093,9.119-22.824c0-19.223-16.652-34.802-37.191-34.802     c-1.92,0-3.807,0.134-5.655,0.398c3.575-5.349,5.655-11.668,5.655-18.443c0-19.168-16.555-34.71-37.022-34.798l0.012-1.293     c0-29.279-25.37-53.021-56.668-53.021c-11.583,0-22.364,3.254-31.33,8.839c-7.462-6.782-17.46-10.934-28.462-10.934     c-9.454,0-18.177,3.073-25.181,8.243C221.222,26.41,208.681,22.2,195.082,22.2c-27.172,0-50.157,16.781-57.747,39.878     c-7.142-3.163-15.123-4.933-23.542-4.933c-30.45,0-55.131,23.095-55.131,51.59c0,15.164,7.003,28.803,18.143,38.245     c-6.929,6.319-11.228,15.142-11.228,24.907c0,10.353,4.842,19.657,12.512,26.029c-8.632,8.734-13.917,20.423-13.917,33.262     c0,22.021,15.525,40.647,36.888,46.825c-0.618,3.209-0.94,6.513-0.94,9.886c0,30.558,26.471,55.33,59.132,55.33     c17.407,0,33.055-7.04,43.877-18.238C205.16,329.324,207.77,333.369,210.868,337.037L210.868,337.037z M275.17,118.138     l-65.444,109.315l55.313-114.22L275.17,118.138z M267.459,44.204l-65.443,109.316l55.309-114.225L267.459,44.204z      M318.956,252.574l55.304-114.223l10.137,4.912L318.956,252.574z M196.992,57.553l-65.44,109.311l55.306-114.222L196.992,57.553z      M344.562,62.174l-65.44,109.311l55.314-114.22L344.562,62.174z" style="fill-rule:evenodd;clip-rule:evenodd;fill:#6EB644;"/>
        <path d="M226.251,329.405c0,0,36.73-11.428,66.568,13.495     c11.949-5.767,21.266-15.628,25.86-27.587c6.044,8.399,16.311,13.937,27.961,13.937c18.59,0,33.663-14.114,33.663-31.51     c0-3.821-0.726-7.489-2.058-10.872c3.113,0.483,6.311,0.74,9.572,0.74c32.001,0,57.948-24.278,57.948-54.22     c0-13.423-5.219-25.709-13.848-35.172c5.137-5.534,8.251-12.756,8.251-20.661c0-17.402-15.074-31.51-33.676-31.51     c-1.736,0-3.442,0.125-5.111,0.362c3.24-4.842,5.111-10.561,5.111-16.695c0-17.354-14.993-31.425-33.515-31.508l0.011-1.167     c0-26.511-22.966-48.003-51.305-48.003c-10.488,0-20.237,2.947-28.366,8.002c-6.746-6.134-15.803-9.892-25.759-9.892     c-8.563,0-16.458,2.78-22.793,7.459c-9.141-6.423-20.501-10.228-32.816-10.228c-24.6,0-45.4,15.198-52.281,36.102     c-6.457-2.862-13.68-4.46-21.31-4.46c-27.558,0-49.911,20.903-49.911,46.695c0,13.732,6.34,26.084,16.422,34.63     c-6.266,5.713-10.162,13.709-10.162,22.548c0,9.375,4.382,17.788,11.332,23.565c-7.819,7.905-12.604,18.488-12.604,30.112     c0,19.935,14.058,36.799,33.395,42.389c-0.556,2.91-0.85,5.901-0.85,8.949c0,27.673,23.968,50.103,53.536,50.103     c15.761,0,29.927-6.381,39.721-16.514C221.075,322.417,223.442,326.084,226.251,329.405L226.251,329.405z M284.463,131.226     l-59.248,98.968l50.075-103.405L284.463,131.226z M277.479,64.295l-59.245,98.966l50.066-103.406L277.479,64.295z      M324.102,252.935l50.067-103.407l9.174,4.445L324.102,252.935z M213.686,76.375l-59.248,98.965l50.069-103.413L213.686,76.375z      M347.279,80.553l-59.246,98.972l50.068-103.408L347.279,80.553z" style="fill-rule:evenodd;clip-rule:evenodd;fill:#7AC143;"/>
        <path d="M209.592,317.285c0,0,36.731-11.429,66.57,13.505     c11.945-5.772,21.267-15.631,25.855-27.598c6.05,8.405,16.315,13.938,27.962,13.938c18.59,0,33.664-14.097,33.664-31.505     c0-3.821-0.726-7.482-2.053-10.873c3.111,0.486,6.305,0.741,9.567,0.741c32.001,0,57.945-24.279,57.945-54.219     c0-13.425-5.212-25.703-13.847-35.174c5.144-5.533,8.251-12.754,8.251-20.661c0-17.4-15.078-31.505-33.673-31.505     c-1.738,0-3.445,0.124-5.118,0.356c3.242-4.833,5.118-10.56,5.118-16.694c0-17.346-14.989-31.425-33.515-31.5l0.015-1.164     c0-26.522-22.967-48.012-51.301-48.012c-10.494,0-20.242,2.952-28.37,8.008c-6.754-6.143-15.806-9.898-25.763-9.898     c-8.559,0-16.458,2.777-22.792,7.468c-9.141-6.433-20.499-10.236-32.813-10.236c-24.604,0-45.403,15.195-52.281,36.101     c-6.457-2.858-13.681-4.463-21.309-4.463c-27.561,0-49.914,20.905-49.914,46.696c0,13.741,6.342,26.084,16.424,34.628     c-6.269,5.725-10.161,13.712-10.161,22.551c0,9.378,4.377,17.796,11.328,23.566c-7.815,7.912-12.6,18.489-12.6,30.114     c0,19.931,14.055,36.795,33.395,42.383c-0.557,2.909-0.853,5.899-0.853,8.96c0,27.663,23.968,50.091,53.538,50.091     c15.758,0,29.917-6.381,39.721-16.513C204.419,310.298,206.786,313.964,209.592,317.285L209.592,317.285z M267.8,119.108     l-59.244,98.971l50.069-103.408L267.8,119.108z M260.824,52.178l-59.248,98.97l50.065-103.406L260.824,52.178z M307.445,240.824     l50.067-103.409l9.179,4.443L307.445,240.824z M197.026,64.258l-59.243,98.968l50.066-103.41L197.026,64.258z M330.629,68.447     l-59.248,98.961l50.07-103.406L330.629,68.447z" style="fill-rule:evenodd;clip-rule:evenodd;fill:#7AC143;"/>
        <polygon points="321.451,64.002 271.381,167.408 330.629,68.447         " style="fill-rule:evenodd;clip-rule:evenodd;fill:#6EB644;"/>
        <polygon points="357.513,137.416 307.445,240.824 366.691,141.859         " style="fill-rule:evenodd;clip-rule:evenodd;fill:#6EB644;"/>
        <path d="M146.146,145.96l8.786-18.149l32.918-67.996l6.033,2.921l3.144,1.521l-48.536,81.083c7.736-2.028,15.569-4.084,23.46-6.173     c1.639-0.432,3.277-0.864,4.914-1.298c11.867-3.137,23.83-6.319,35.742-9.5l37.251-76.938l1.785-3.688l1.296,0.622l1.902,0.919     l5.984,2.895l-45.118,75.366c0.741-0.199,1.476-0.396,2.217-0.596c6.887-1.841,13.751-3.68,20.561-5.51     c1.911-0.517,3.808-1.028,5.709-1.537c4.594-1.242,9.157-2.468,13.691-3.688l0.741-1.543l1.785,0.858     c1.347-0.364,2.694-0.725,4.043-1.092c0.66-0.179,1.312-0.352,1.973-0.53c12.222-3.304,24.123-6.532,35.518-9.631l19.508-40.272     l7.867,3.812l1.311,0.632l-8.42,14.056l-11.63,19.426c0.852-0.234,1.705-0.469,2.557-0.695c3.258-0.89,6.461-1.764,9.605-2.628     c1.736-0.466,3.454-0.938,5.158-1.399c3.838-1.052,7.602-2.074,11.259-3.081c9.188-2.505,17.748-4.856,25.576-7.003     c-2.691-0.658-5.504-1.018-8.414-1.029l0.015-1.164c0-11.849-4.578-22.685-12.178-31.063     c-9.413-10.367-23.441-16.949-39.123-16.949c-10.494,0-20.242,2.952-28.37,8.008c-6.754-6.143-15.806-9.898-25.763-9.898     c-8.559,0-16.458,2.777-22.792,7.468c-9.141-6.433-20.499-10.236-32.813-10.236c-24.604,0-45.403,15.195-52.281,36.101     c-6.457-2.858-13.681-4.463-21.309-4.463c-27.561,0-49.914,20.905-49.914,46.696c0,13.741,6.342,26.084,16.424,34.628     c-5.21,4.757-8.777,11.073-9.831,18.154c8.271-2.083,16.93-4.277,25.871-6.572c11.821-3.019,24.145-6.214,36.769-9.509     c0.882-0.234,1.772-0.463,2.66-0.695C144.499,146.383,145.321,146.17,146.146,145.96L146.146,145.96z" style="fill-rule:evenodd;clip-rule:evenodd;fill:#89C540;stroke:#6EB644;stroke-width:0.2268;stroke-miterlimit:10;"/>
      </g>
    </g>
  </g>
</svg>